<?xml version="1.0" encoding="UTF-8"?>
<svg xmlns="http://www.w3.org/2000/svg" xmlns:xlink="http://www.w3.org/1999/xlink" width="854" height="480" viewBox="0 0 854 480">
<defs>
<g>
<g id="glyph-0-0">
<path d="M 6.1875 -5.546875 C 6.1875 -5.234375 6.125 -4.945312 6.007812 -4.671875 C 5.886719 -4.402344 5.722656 -4.164062 5.519531 -3.960938 C 5.316406 -3.753906 5.078125 -3.59375 4.804688 -3.472656 C 4.535156 -3.351562 4.246094 -3.292969 3.933594 -3.292969 L 2.292969 -3.292969 L 2.292969 -0.148438 C 2.292969 -0.101562 2.277344 -0.0664062 2.246094 -0.0390625 C 2.214844 -0.0117188 2.175781 0 2.132812 0 L 1.535156 0 C 1.4375 0 1.386719 -0.0507812 1.386719 -0.148438 L 1.386719 -9.746094 C 1.386719 -9.84375 1.433594 -9.894531 1.535156 -9.894531 L 3.933594 -9.894531 C 4.246094 -9.894531 4.535156 -9.835938 4.804688 -9.71875 C 5.078125 -9.605469 5.316406 -9.445312 5.519531 -9.238281 C 5.722656 -9.035156 5.886719 -8.796875 6.007812 -8.527344 C 6.125 -8.253906 6.1875 -7.964844 6.1875 -7.652344 Z M 5.28125 -7.652344 C 5.28125 -7.839844 5.246094 -8.015625 5.171875 -8.179688 C 5.101562 -8.34375 5.007812 -8.488281 4.886719 -8.605469 C 4.765625 -8.726562 4.625 -8.820312 4.460938 -8.894531 C 4.296875 -8.964844 4.121094 -9 3.933594 -9 L 2.292969 -9 L 2.292969 -4.199219 L 3.933594 -4.199219 C 4.121094 -4.199219 4.296875 -4.234375 4.460938 -4.304688 C 4.625 -4.378906 4.765625 -4.472656 4.886719 -4.59375 C 5.007812 -4.714844 5.101562 -4.855469 5.171875 -5.019531 C 5.242188 -5.183594 5.28125 -5.359375 5.28125 -5.546875 Z "/>
</g>
<g id="glyph-0-1">
<path d="M 6.359375 -3.601562 C 6.359375 -3.503906 6.3125 -3.453125 6.214844 -3.453125 L 5.613281 -3.453125 C 5.515625 -3.453125 5.464844 -3.503906 5.464844 -3.601562 L 5.464844 -4.800781 C 5.464844 -5.003906 5.429688 -5.1875 5.351562 -5.351562 C 5.277344 -5.515625 5.175781 -5.65625 5.054688 -5.773438 C 4.929688 -5.890625 4.785156 -5.980469 4.625 -6.046875 C 4.464844 -6.113281 4.296875 -6.148438 4.121094 -6.148438 L 3.8125 -6.148438 C 3.644531 -6.148438 3.476562 -6.113281 3.3125 -6.046875 C 3.148438 -5.980469 3.003906 -5.890625 2.878906 -5.773438 C 2.753906 -5.65625 2.65625 -5.519531 2.578125 -5.351562 C 2.503906 -5.1875 2.464844 -5.003906 2.464844 -4.800781 L 2.464844 -0.894531 L 5.011719 -0.894531 C 5.109375 -0.894531 5.160156 -0.84375 5.160156 -0.746094 L 5.160156 -0.148438 C 5.160156 -0.0507812 5.109375 0 5.011719 0 L 0.519531 0 C 0.421875 0 0.375 -0.0507812 0.375 -0.148438 L 0.375 -0.746094 C 0.375 -0.84375 0.421875 -0.894531 0.519531 -0.894531 L 1.574219 -0.894531 L 1.574219 -4.800781 C 1.574219 -5.09375 1.628906 -5.378906 1.738281 -5.652344 C 1.851562 -5.929688 2.007812 -6.167969 2.207031 -6.375 C 2.40625 -6.578125 2.644531 -6.742188 2.921875 -6.867188 C 3.195312 -6.992188 3.492188 -7.054688 3.8125 -7.054688 L 4.121094 -7.054688 C 4.441406 -7.054688 4.738281 -6.992188 5.011719 -6.867188 C 5.289062 -6.742188 5.527344 -6.578125 5.726562 -6.375 C 5.925781 -6.167969 6.082031 -5.929688 6.191406 -5.652344 C 6.304688 -5.378906 6.359375 -5.09375 6.359375 -4.800781 Z "/>
</g>
<g id="glyph-0-2">
<path d="M 6 -0.148438 C 6 -0.0507812 5.949219 0 5.851562 0 L 5.253906 0 C 5.15625 0 5.105469 -0.0507812 5.105469 -0.148438 L 5.105469 -0.292969 C 4.714844 0 4.265625 0.148438 3.761719 0.148438 L 3.453125 0.148438 C 3.140625 0.148438 2.851562 0.0898438 2.578125 -0.0273438 C 2.308594 -0.140625 2.070312 -0.300781 1.867188 -0.507812 C 1.664062 -0.710938 1.503906 -0.949219 1.386719 -1.21875 C 1.269531 -1.492188 1.214844 -1.78125 1.214844 -2.09375 L 1.214844 -6.746094 C 1.214844 -6.84375 1.261719 -6.894531 1.359375 -6.894531 L 1.960938 -6.894531 C 2.058594 -6.894531 2.105469 -6.84375 2.105469 -6.746094 L 2.105469 -2.09375 C 2.105469 -1.90625 2.140625 -1.734375 2.214844 -1.574219 C 2.285156 -1.414062 2.378906 -1.269531 2.5 -1.148438 C 2.621094 -1.023438 2.761719 -0.925781 2.925781 -0.851562 C 3.089844 -0.78125 3.265625 -0.746094 3.453125 -0.746094 L 3.761719 -0.746094 C 3.945312 -0.746094 4.121094 -0.78125 4.285156 -0.851562 C 4.449219 -0.925781 4.59375 -1.023438 4.714844 -1.148438 C 4.832031 -1.273438 4.929688 -1.414062 5 -1.574219 C 5.070312 -1.734375 5.105469 -1.90625 5.105469 -2.09375 L 5.105469 -6.746094 C 5.105469 -6.84375 5.15625 -6.894531 5.253906 -6.894531 L 5.851562 -6.894531 C 5.949219 -6.894531 6 -6.84375 6 -6.746094 Z "/>
</g>
<g id="glyph-0-3">
<path d="M 6.121094 -0.148438 C 6.121094 -0.0507812 6.070312 0 5.972656 0 L 5.375 0 C 5.277344 0 5.226562 -0.0507812 5.226562 -0.148438 L 5.226562 -4.800781 C 5.226562 -4.988281 5.191406 -5.160156 5.121094 -5.328125 C 5.050781 -5.492188 4.953125 -5.632812 4.832031 -5.753906 C 4.710938 -5.875 4.570312 -5.96875 4.40625 -6.039062 C 4.242188 -6.109375 4.066406 -6.148438 3.878906 -6.148438 L 3.574219 -6.148438 C 3.386719 -6.148438 3.210938 -6.109375 3.046875 -6.039062 C 2.882812 -5.96875 2.738281 -5.875 2.621094 -5.753906 C 2.5 -5.632812 2.40625 -5.492188 2.332031 -5.328125 C 2.261719 -5.164062 2.226562 -4.988281 2.226562 -4.800781 L 2.226562 -0.148438 C 2.226562 -0.0507812 2.175781 0 2.078125 0 L 1.480469 0 C 1.382812 0 1.332031 -0.0507812 1.332031 -0.148438 L 1.332031 -6.746094 C 1.332031 -6.84375 1.382812 -6.894531 1.480469 -6.894531 L 2.078125 -6.894531 C 2.175781 -6.894531 2.226562 -6.84375 2.226562 -6.746094 L 2.226562 -6.601562 C 2.414062 -6.742188 2.621094 -6.851562 2.847656 -6.933594 C 3.074219 -7.011719 3.316406 -7.054688 3.574219 -7.054688 L 3.878906 -7.054688 C 4.191406 -7.054688 4.480469 -6.992188 4.753906 -6.875 C 5.023438 -6.753906 5.261719 -6.589844 5.464844 -6.386719 C 5.671875 -6.183594 5.832031 -5.945312 5.945312 -5.671875 C 6.0625 -5.402344 6.121094 -5.109375 6.121094 -4.800781 Z "/>
</g>
<g id="glyph-0-4">
<path d="M 6.667969 -0.148438 C 6.667969 -0.0507812 6.617188 0 6.519531 0 L 6.214844 0 C 6.019531 0 5.839844 -0.0507812 5.679688 -0.148438 C 5.519531 -0.246094 5.390625 -0.378906 5.292969 -0.546875 C 5.042969 -0.324219 4.765625 -0.152344 4.453125 -0.0351562 C 4.140625 0.0859375 3.832031 0.148438 3.519531 0.148438 L 3.214844 0.148438 C 2.9375 0.148438 2.679688 0.101562 2.441406 0.0078125 C 2.199219 -0.0859375 1.992188 -0.214844 1.820312 -0.375 C 1.648438 -0.535156 1.511719 -0.722656 1.414062 -0.941406 C 1.316406 -1.160156 1.265625 -1.394531 1.265625 -1.652344 L 1.265625 -1.945312 C 1.265625 -2.363281 1.363281 -2.703125 1.554688 -2.960938 C 1.746094 -3.21875 1.984375 -3.425781 2.273438 -3.578125 C 2.5625 -3.734375 2.875 -3.859375 3.214844 -3.945312 C 3.550781 -4.035156 3.863281 -4.121094 4.152344 -4.199219 C 4.441406 -4.28125 4.683594 -4.375 4.875 -4.488281 C 5.066406 -4.597656 5.160156 -4.75 5.160156 -4.945312 C 5.160156 -5.292969 5.035156 -5.578125 4.785156 -5.804688 C 4.539062 -6.03125 4.214844 -6.148438 3.8125 -6.148438 L 3.667969 -6.148438 C 3.480469 -6.148438 3.304688 -6.109375 3.140625 -6.039062 C 2.976562 -5.96875 2.832031 -5.875 2.714844 -5.753906 C 2.59375 -5.632812 2.496094 -5.492188 2.425781 -5.328125 C 2.355469 -5.164062 2.320312 -4.988281 2.320312 -4.800781 L 2.320312 -4.492188 C 2.320312 -4.457031 2.304688 -4.425781 2.273438 -4.394531 C 2.242188 -4.363281 2.207031 -4.347656 2.171875 -4.347656 L 1.574219 -4.347656 C 1.527344 -4.347656 1.492188 -4.363281 1.460938 -4.394531 C 1.429688 -4.425781 1.414062 -4.457031 1.414062 -4.492188 L 1.414062 -4.800781 C 1.414062 -5.109375 1.472656 -5.402344 1.59375 -5.671875 C 1.714844 -5.945312 1.875 -6.183594 2.078125 -6.386719 C 2.285156 -6.589844 2.523438 -6.753906 2.792969 -6.875 C 3.0625 -6.992188 3.355469 -7.054688 3.667969 -7.054688 L 3.8125 -7.054688 C 4.105469 -7.054688 4.390625 -7.003906 4.667969 -6.90625 C 4.941406 -6.808594 5.183594 -6.667969 5.386719 -6.488281 C 5.589844 -6.304688 5.753906 -6.082031 5.878906 -5.820312 C 6.003906 -5.558594 6.066406 -5.265625 6.066406 -4.945312 L 6.066406 -1.054688 C 6.066406 -1.007812 6.078125 -0.972656 6.105469 -0.941406 C 6.132812 -0.910156 6.167969 -0.894531 6.214844 -0.894531 L 6.519531 -0.894531 C 6.617188 -0.894531 6.667969 -0.84375 6.667969 -0.746094 Z M 5.160156 -3.652344 C 5.035156 -3.589844 4.910156 -3.539062 4.78125 -3.5 C 4.652344 -3.460938 4.519531 -3.417969 4.386719 -3.375 C 4.199219 -3.320312 3.980469 -3.261719 3.726562 -3.199219 C 3.472656 -3.136719 3.230469 -3.054688 3 -2.953125 C 2.769531 -2.851562 2.574219 -2.71875 2.414062 -2.558594 C 2.253906 -2.398438 2.171875 -2.195312 2.171875 -1.945312 L 2.171875 -1.652344 C 2.171875 -1.414062 2.261719 -1.203125 2.441406 -1.019531 C 2.617188 -0.835938 2.875 -0.746094 3.214844 -0.746094 L 3.519531 -0.746094 C 3.722656 -0.746094 3.925781 -0.785156 4.125 -0.867188 C 4.324219 -0.945312 4.503906 -1.050781 4.652344 -1.171875 C 4.804688 -1.296875 4.925781 -1.441406 5.019531 -1.605469 C 5.113281 -1.769531 5.160156 -1.933594 5.160156 -2.09375 Z "/>
</g>
<g id="glyph-0-5">
<path d="M 6.1875 -2.09375 C 6.1875 -1.78125 6.125 -1.492188 6.007812 -1.21875 C 5.886719 -0.949219 5.722656 -0.710938 5.519531 -0.507812 C 5.316406 -0.300781 5.078125 -0.140625 4.804688 -0.0273438 C 4.535156 0.0898438 4.246094 0.148438 3.933594 0.148438 L 3.640625 0.148438 C 3.132812 0.148438 2.683594 0 2.292969 -0.292969 L 2.292969 -0.148438 C 2.292969 -0.101562 2.277344 -0.0664062 2.246094 -0.0390625 C 2.214844 -0.0117188 2.175781 0 2.132812 0 L 1.535156 0 C 1.4375 0 1.386719 -0.0507812 1.386719 -0.148438 L 1.386719 -9.746094 C 1.386719 -9.84375 1.433594 -9.894531 1.535156 -9.894531 L 2.132812 -9.894531 C 2.175781 -9.894531 2.214844 -9.878906 2.246094 -9.851562 C 2.277344 -9.824219 2.292969 -9.789062 2.292969 -9.746094 L 2.292969 -6.601562 C 2.480469 -6.742188 2.6875 -6.851562 2.914062 -6.933594 C 3.140625 -7.011719 3.382812 -7.054688 3.640625 -7.054688 L 3.933594 -7.054688 C 4.246094 -7.054688 4.535156 -6.992188 4.804688 -6.875 C 5.078125 -6.753906 5.316406 -6.589844 5.519531 -6.386719 C 5.722656 -6.183594 5.886719 -5.945312 6.007812 -5.671875 C 6.125 -5.402344 6.1875 -5.109375 6.1875 -4.800781 Z M 5.28125 -4.800781 C 5.28125 -4.988281 5.246094 -5.160156 5.171875 -5.328125 C 5.101562 -5.492188 5.007812 -5.632812 4.886719 -5.753906 C 4.765625 -5.875 4.625 -5.96875 4.460938 -6.039062 C 4.296875 -6.109375 4.121094 -6.148438 3.933594 -6.148438 L 3.640625 -6.148438 C 3.453125 -6.148438 3.277344 -6.109375 3.113281 -6.039062 C 2.949219 -5.96875 2.804688 -5.875 2.6875 -5.753906 C 2.566406 -5.632812 2.472656 -5.492188 2.398438 -5.328125 C 2.328125 -5.164062 2.292969 -4.988281 2.292969 -4.800781 L 2.292969 -2.09375 C 2.292969 -1.90625 2.328125 -1.734375 2.398438 -1.574219 C 2.46875 -1.414062 2.566406 -1.269531 2.6875 -1.148438 C 2.808594 -1.023438 2.949219 -0.925781 3.113281 -0.851562 C 3.277344 -0.78125 3.453125 -0.746094 3.640625 -0.746094 L 3.933594 -0.746094 C 4.121094 -0.746094 4.296875 -0.78125 4.460938 -0.851562 C 4.625 -0.925781 4.765625 -1.023438 4.886719 -1.148438 C 5.007812 -1.273438 5.101562 -1.414062 5.171875 -1.574219 C 5.242188 -1.734375 5.28125 -1.90625 5.28125 -2.09375 Z "/>
</g>
<g id="glyph-0-6">
<path d="M 6.667969 -0.148438 C 6.667969 -0.0507812 6.617188 0 6.519531 0 L 0.972656 0 C 0.929688 0 0.890625 -0.0117188 0.859375 -0.0390625 C 0.828125 -0.0664062 0.8125 -0.101562 0.8125 -0.148438 L 0.8125 -0.746094 C 0.8125 -0.789062 0.828125 -0.828125 0.859375 -0.851562 C 0.890625 -0.878906 0.929688 -0.894531 0.972656 -0.894531 L 3.519531 -0.894531 L 3.519531 -9 L 1.574219 -9 C 1.527344 -9 1.492188 -9.011719 1.460938 -9.039062 C 1.429688 -9.066406 1.414062 -9.101562 1.414062 -9.144531 L 1.414062 -9.746094 C 1.414062 -9.789062 1.429688 -9.828125 1.460938 -9.851562 C 1.492188 -9.878906 1.527344 -9.894531 1.574219 -9.894531 L 4.265625 -9.894531 C 4.363281 -9.894531 4.414062 -9.84375 4.414062 -9.746094 L 4.414062 -0.894531 L 6.519531 -0.894531 C 6.617188 -0.894531 6.667969 -0.84375 6.667969 -0.746094 Z "/>
</g>
<g id="glyph-0-7">
<path d="M 6.066406 -3.148438 C 6.066406 -3.050781 6.019531 -3 5.917969 -3 L 2.160156 -3 L 2.160156 -2.09375 C 2.160156 -1.90625 2.195312 -1.734375 2.265625 -1.574219 C 2.335938 -1.414062 2.433594 -1.269531 2.558594 -1.148438 C 2.683594 -1.023438 2.828125 -0.925781 2.992188 -0.851562 C 3.15625 -0.78125 3.332031 -0.746094 3.519531 -0.746094 L 3.8125 -0.746094 C 4.125 -0.746094 4.398438 -0.84375 4.640625 -1.035156 C 4.878906 -1.226562 5.039062 -1.460938 5.121094 -1.746094 C 5.148438 -1.835938 5.207031 -1.871094 5.304688 -1.851562 L 5.878906 -1.691406 C 5.925781 -1.683594 5.957031 -1.664062 5.980469 -1.625 C 6.003906 -1.589844 6.003906 -1.550781 5.988281 -1.507812 C 5.925781 -1.265625 5.824219 -1.046875 5.6875 -0.847656 C 5.550781 -0.648438 5.382812 -0.472656 5.191406 -0.328125 C 5 -0.179688 4.789062 -0.0625 4.554688 0.0195312 C 4.316406 0.105469 4.070312 0.148438 3.8125 0.148438 L 3.519531 0.148438 C 3.207031 0.148438 2.917969 0.0898438 2.648438 -0.0273438 C 2.375 -0.140625 2.136719 -0.300781 1.933594 -0.507812 C 1.730469 -0.710938 1.566406 -0.949219 1.445312 -1.21875 C 1.328125 -1.492188 1.265625 -1.78125 1.265625 -2.09375 L 1.265625 -4.800781 C 1.265625 -5.109375 1.328125 -5.402344 1.445312 -5.671875 C 1.566406 -5.945312 1.730469 -6.183594 1.933594 -6.386719 C 2.136719 -6.589844 2.375 -6.753906 2.648438 -6.875 C 2.917969 -6.992188 3.207031 -7.054688 3.519531 -7.054688 L 3.8125 -7.054688 C 4.125 -7.054688 4.414062 -6.992188 4.6875 -6.875 C 4.957031 -6.753906 5.195312 -6.589844 5.398438 -6.386719 C 5.605469 -6.183594 5.765625 -5.945312 5.886719 -5.671875 C 6.007812 -5.402344 6.066406 -5.109375 6.066406 -4.800781 Z M 5.160156 -4.800781 C 5.160156 -4.988281 5.125 -5.160156 5.054688 -5.328125 C 4.984375 -5.492188 4.886719 -5.632812 4.765625 -5.753906 C 4.644531 -5.875 4.503906 -5.96875 4.339844 -6.039062 C 4.175781 -6.109375 4 -6.148438 3.8125 -6.148438 L 3.519531 -6.148438 C 3.332031 -6.148438 3.15625 -6.109375 2.992188 -6.039062 C 2.828125 -5.96875 2.683594 -5.875 2.558594 -5.753906 C 2.433594 -5.632812 2.335938 -5.492188 2.265625 -5.328125 C 2.195312 -5.164062 2.160156 -4.988281 2.160156 -4.800781 L 2.160156 -3.894531 L 5.160156 -3.894531 Z "/>
</g>
<g id="glyph-0-8">
<rect x="0" y="0" width="0" height="0" mask="url(#mask-0)"/>
</g>
<g id="glyph-0-9">
<path d="M 6.359375 -9.144531 C 6.359375 -9.046875 6.3125 -9 6.214844 -9 L 2.464844 -9 L 2.464844 -5.398438 L 5.917969 -5.398438 C 6.015625 -5.398438 6.066406 -5.351562 6.066406 -5.253906 L 6.066406 -4.652344 C 6.066406 -4.609375 6.054688 -4.570312 6.027344 -4.539062 C 6 -4.507812 5.964844 -4.492188 5.917969 -4.492188 L 2.464844 -4.492188 L 2.464844 -0.148438 C 2.464844 -0.0507812 2.417969 0 2.320312 0 L 1.71875 0 C 1.621094 0 1.574219 -0.0507812 1.574219 -0.148438 L 1.574219 -9.746094 C 1.574219 -9.84375 1.621094 -9.894531 1.71875 -9.894531 L 6.214844 -9.894531 C 6.3125 -9.894531 6.359375 -9.84375 6.359375 -9.746094 Z "/>
</g>
<g id="glyph-0-10">
<path d="M 6.359375 -2.09375 C 6.359375 -1.78125 6.300781 -1.492188 6.1875 -1.21875 C 6.070312 -0.949219 5.910156 -0.710938 5.707031 -0.507812 C 5.503906 -0.300781 5.265625 -0.140625 4.992188 -0.0273438 C 4.722656 0.0898438 4.429688 0.148438 4.121094 0.148438 C 3.808594 0.148438 3.519531 0.0898438 3.246094 -0.0273438 C 2.976562 -0.140625 2.738281 -0.300781 2.535156 -0.507812 C 2.328125 -0.710938 2.167969 -0.949219 2.046875 -1.21875 C 1.925781 -1.492188 1.867188 -1.78125 1.867188 -2.09375 L 1.867188 -5.691406 L 0.8125 -5.691406 C 0.769531 -5.691406 0.734375 -5.707031 0.707031 -5.738281 C 0.679688 -5.769531 0.667969 -5.808594 0.667969 -5.851562 L 0.667969 -6.453125 C 0.667969 -6.550781 0.714844 -6.601562 0.8125 -6.601562 L 1.867188 -6.601562 L 1.867188 -9.746094 C 1.867188 -9.84375 1.914062 -9.894531 2.011719 -9.894531 L 2.613281 -9.894531 C 2.65625 -9.894531 2.695312 -9.878906 2.726562 -9.851562 C 2.757812 -9.824219 2.773438 -9.789062 2.773438 -9.746094 L 2.773438 -6.601562 L 5.613281 -6.601562 C 5.710938 -6.601562 5.761719 -6.550781 5.761719 -6.453125 L 5.761719 -5.851562 C 5.761719 -5.808594 5.746094 -5.769531 5.71875 -5.738281 C 5.691406 -5.707031 5.65625 -5.691406 5.613281 -5.691406 L 2.773438 -5.691406 L 2.773438 -2.09375 C 2.773438 -1.90625 2.808594 -1.734375 2.878906 -1.574219 C 2.949219 -1.414062 3.046875 -1.269531 3.167969 -1.148438 C 3.285156 -1.023438 3.429688 -0.925781 3.59375 -0.851562 C 3.757812 -0.78125 3.933594 -0.746094 4.121094 -0.746094 C 4.308594 -0.746094 4.480469 -0.78125 4.648438 -0.851562 C 4.8125 -0.925781 4.953125 -1.023438 5.074219 -1.148438 C 5.195312 -1.273438 5.289062 -1.414062 5.359375 -1.574219 C 5.429688 -1.734375 5.464844 -1.90625 5.464844 -2.09375 L 5.464844 -2.398438 C 5.464844 -2.496094 5.515625 -2.546875 5.613281 -2.546875 L 6.214844 -2.546875 C 6.3125 -2.546875 6.359375 -2.496094 6.359375 -2.398438 Z "/>
</g>
<g id="glyph-0-11">
<path d="M 6.214844 -1.945312 C 6.214844 -1.625 6.152344 -1.335938 6.03125 -1.074219 C 5.914062 -0.8125 5.75 -0.589844 5.539062 -0.414062 C 5.332031 -0.234375 5.089844 -0.0976562 4.820312 0 C 4.550781 0.0976562 4.261719 0.148438 3.960938 0.148438 L 3.519531 0.148438 C 3.226562 0.148438 2.941406 0.0976562 2.667969 0 C 2.390625 -0.0976562 2.152344 -0.234375 1.945312 -0.414062 C 1.742188 -0.589844 1.578125 -0.8125 1.453125 -1.074219 C 1.328125 -1.335938 1.265625 -1.625 1.265625 -1.945312 L 1.265625 -2.253906 C 1.265625 -2.351562 1.316406 -2.398438 1.414062 -2.398438 L 2.011719 -2.398438 C 2.058594 -2.398438 2.09375 -2.386719 2.125 -2.359375 C 2.15625 -2.332031 2.171875 -2.296875 2.171875 -2.253906 L 2.171875 -1.945312 C 2.171875 -1.597656 2.296875 -1.3125 2.546875 -1.085938 C 2.796875 -0.859375 3.121094 -0.746094 3.519531 -0.746094 L 3.960938 -0.746094 C 4.359375 -0.746094 4.6875 -0.859375 4.941406 -1.085938 C 5.195312 -1.3125 5.320312 -1.601562 5.320312 -1.945312 C 5.320312 -2.195312 5.222656 -2.390625 5.035156 -2.527344 C 4.84375 -2.664062 4.601562 -2.78125 4.304688 -2.875 C 4.011719 -2.96875 3.699219 -3.054688 3.367188 -3.140625 C 3.035156 -3.222656 2.71875 -3.339844 2.425781 -3.488281 C 2.132812 -3.632812 1.890625 -3.824219 1.699219 -4.058594 C 1.507812 -4.296875 1.414062 -4.613281 1.414062 -5.011719 C 1.414062 -5.332031 1.476562 -5.621094 1.601562 -5.875 C 1.726562 -6.128906 1.890625 -6.339844 2.09375 -6.511719 C 2.296875 -6.6875 2.539062 -6.820312 2.8125 -6.914062 C 3.089844 -7.007812 3.375 -7.054688 3.667969 -7.054688 L 3.8125 -7.054688 C 4.105469 -7.054688 4.390625 -7.003906 4.667969 -6.90625 C 4.941406 -6.808594 5.183594 -6.667969 5.386719 -6.488281 C 5.589844 -6.304688 5.753906 -6.082031 5.878906 -5.820312 C 6.003906 -5.558594 6.066406 -5.265625 6.066406 -4.945312 L 6.066406 -4.800781 C 6.066406 -4.703125 6.019531 -4.652344 5.917969 -4.652344 L 5.320312 -4.652344 C 5.277344 -4.652344 5.238281 -4.667969 5.207031 -4.691406 C 5.175781 -4.71875 5.160156 -4.753906 5.160156 -4.800781 L 5.160156 -4.945312 C 5.160156 -5.292969 5.035156 -5.578125 4.785156 -5.804688 C 4.539062 -6.03125 4.214844 -6.148438 3.8125 -6.148438 L 3.667969 -6.148438 C 3.257812 -6.148438 2.929688 -6.042969 2.6875 -5.832031 C 2.441406 -5.625 2.320312 -5.351562 2.320312 -5.011719 C 2.320312 -4.765625 2.414062 -4.570312 2.605469 -4.433594 C 2.796875 -4.296875 3.039062 -4.179688 3.328125 -4.085938 C 3.617188 -3.992188 3.929688 -3.90625 4.265625 -3.820312 C 4.605469 -3.734375 4.917969 -3.621094 5.207031 -3.472656 C 5.496094 -3.328125 5.734375 -3.136719 5.925781 -2.898438 C 6.117188 -2.664062 6.214844 -2.347656 6.214844 -1.945312 Z "/>
</g>
<g id="glyph-0-12">
<path d="M 4.71875 -8.398438 C 4.71875 -8.355469 4.703125 -8.320312 4.671875 -8.292969 C 4.640625 -8.265625 4.605469 -8.253906 4.558594 -8.253906 L 3.375 -8.253906 C 3.328125 -8.253906 3.292969 -8.265625 3.261719 -8.292969 C 3.230469 -8.320312 3.214844 -8.355469 3.214844 -8.398438 L 3.214844 -9.601562 C 3.214844 -9.644531 3.230469 -9.679688 3.261719 -9.707031 C 3.292969 -9.734375 3.328125 -9.746094 3.375 -9.746094 L 4.558594 -9.746094 C 4.605469 -9.746094 4.640625 -9.734375 4.671875 -9.707031 C 4.703125 -9.679688 4.71875 -9.644531 4.71875 -9.601562 Z M 6.667969 -0.148438 C 6.667969 -0.0507812 6.617188 0 6.519531 0 L 1.121094 0 C 1.023438 0 0.972656 -0.0507812 0.972656 -0.148438 L 0.972656 -0.746094 C 0.972656 -0.84375 1.023438 -0.894531 1.121094 -0.894531 L 3.667969 -0.894531 L 3.667969 -6 L 1.71875 -6 C 1.621094 -6 1.574219 -6.046875 1.574219 -6.148438 L 1.574219 -6.746094 C 1.574219 -6.84375 1.621094 -6.894531 1.71875 -6.894531 L 4.414062 -6.894531 C 4.511719 -6.894531 4.558594 -6.84375 4.558594 -6.746094 L 4.558594 -0.894531 L 6.519531 -0.894531 C 6.617188 -0.894531 6.667969 -0.84375 6.667969 -0.746094 Z "/>
</g>
<g id="glyph-0-13">
<path d="M 6.359375 -0.148438 C 6.359375 -0.0507812 6.3125 0 6.214844 0 L 2.011719 0 C 1.914062 0 1.867188 -0.0507812 1.867188 -0.148438 L 1.867188 -9.746094 C 1.867188 -9.84375 1.914062 -9.894531 2.011719 -9.894531 L 2.613281 -9.894531 C 2.65625 -9.894531 2.695312 -9.878906 2.726562 -9.851562 C 2.757812 -9.824219 2.773438 -9.789062 2.773438 -9.746094 L 2.773438 -0.894531 L 6.214844 -0.894531 C 6.3125 -0.894531 6.359375 -0.84375 6.359375 -0.746094 Z "/>
</g>
<g id="glyph-0-14">
<path d="M 6.1875 -2.09375 C 6.1875 -1.78125 6.125 -1.492188 6.007812 -1.21875 C 5.886719 -0.949219 5.722656 -0.710938 5.519531 -0.507812 C 5.316406 -0.300781 5.078125 -0.140625 4.804688 -0.0273438 C 4.535156 0.0898438 4.246094 0.148438 3.933594 0.148438 L 3.640625 0.148438 C 3.132812 0.148438 2.683594 0 2.292969 -0.292969 L 2.292969 2.851562 C 2.292969 2.898438 2.277344 2.933594 2.246094 2.960938 C 2.214844 2.988281 2.175781 3 2.132812 3 L 1.535156 3 C 1.4375 3 1.386719 2.949219 1.386719 2.851562 L 1.386719 -6.746094 C 1.386719 -6.84375 1.433594 -6.894531 1.535156 -6.894531 L 2.132812 -6.894531 C 2.175781 -6.894531 2.214844 -6.878906 2.246094 -6.851562 C 2.277344 -6.824219 2.292969 -6.789062 2.292969 -6.746094 L 2.292969 -6.601562 C 2.480469 -6.742188 2.6875 -6.851562 2.914062 -6.933594 C 3.140625 -7.011719 3.382812 -7.054688 3.640625 -7.054688 L 3.933594 -7.054688 C 4.246094 -7.054688 4.535156 -6.992188 4.804688 -6.875 C 5.078125 -6.753906 5.316406 -6.589844 5.519531 -6.386719 C 5.722656 -6.183594 5.886719 -5.945312 6.007812 -5.671875 C 6.125 -5.402344 6.1875 -5.109375 6.1875 -4.800781 Z M 5.28125 -4.800781 C 5.28125 -4.988281 5.246094 -5.160156 5.171875 -5.328125 C 5.101562 -5.492188 5.007812 -5.632812 4.886719 -5.753906 C 4.765625 -5.875 4.625 -5.96875 4.460938 -6.039062 C 4.296875 -6.109375 4.121094 -6.148438 3.933594 -6.148438 L 3.640625 -6.148438 C 3.453125 -6.148438 3.277344 -6.109375 3.113281 -6.039062 C 2.949219 -5.96875 2.804688 -5.875 2.6875 -5.753906 C 2.566406 -5.632812 2.472656 -5.492188 2.398438 -5.328125 C 2.328125 -5.164062 2.292969 -4.988281 2.292969 -4.800781 L 2.292969 -2.09375 C 2.292969 -1.90625 2.328125 -1.734375 2.398438 -1.574219 C 2.46875 -1.414062 2.566406 -1.269531 2.6875 -1.148438 C 2.808594 -1.023438 2.949219 -0.925781 3.113281 -0.851562 C 3.277344 -0.78125 3.453125 -0.746094 3.640625 -0.746094 L 3.933594 -0.746094 C 4.121094 -0.746094 4.296875 -0.78125 4.460938 -0.851562 C 4.625 -0.925781 4.765625 -1.023438 4.886719 -1.148438 C 5.007812 -1.273438 5.101562 -1.414062 5.171875 -1.574219 C 5.242188 -1.734375 5.28125 -1.90625 5.28125 -2.09375 Z "/>
</g>
<g id="glyph-0-15">
<path d="M 6.066406 -2.09375 C 6.066406 -1.78125 6.007812 -1.492188 5.886719 -1.21875 C 5.765625 -0.949219 5.605469 -0.710938 5.398438 -0.507812 C 5.195312 -0.300781 4.957031 -0.140625 4.6875 -0.0273438 C 4.414062 0.0898438 4.125 0.148438 3.8125 0.148438 L 3.519531 0.148438 C 3.207031 0.148438 2.917969 0.0898438 2.648438 -0.0273438 C 2.375 -0.140625 2.136719 -0.300781 1.933594 -0.507812 C 1.730469 -0.710938 1.566406 -0.949219 1.445312 -1.21875 C 1.328125 -1.492188 1.265625 -1.78125 1.265625 -2.09375 L 1.265625 -4.800781 C 1.265625 -5.109375 1.328125 -5.402344 1.445312 -5.671875 C 1.566406 -5.945312 1.730469 -6.183594 1.933594 -6.386719 C 2.136719 -6.589844 2.375 -6.753906 2.648438 -6.875 C 2.917969 -6.992188 3.207031 -7.054688 3.519531 -7.054688 L 3.8125 -7.054688 C 4.125 -7.054688 4.414062 -6.992188 4.6875 -6.875 C 4.957031 -6.753906 5.195312 -6.589844 5.398438 -6.386719 C 5.605469 -6.183594 5.765625 -5.945312 5.886719 -5.671875 C 6.007812 -5.402344 6.066406 -5.109375 6.066406 -4.800781 C 6.066406 -4.703125 6.019531 -4.652344 5.917969 -4.652344 L 5.320312 -4.652344 C 5.277344 -4.652344 5.238281 -4.667969 5.207031 -4.691406 C 5.175781 -4.71875 5.160156 -4.753906 5.160156 -4.800781 C 5.160156 -4.988281 5.125 -5.160156 5.054688 -5.328125 C 4.984375 -5.492188 4.886719 -5.632812 4.765625 -5.753906 C 4.644531 -5.875 4.503906 -5.96875 4.339844 -6.039062 C 4.175781 -6.109375 4 -6.148438 3.8125 -6.148438 L 3.519531 -6.148438 C 3.332031 -6.148438 3.15625 -6.109375 2.992188 -6.039062 C 2.828125 -5.96875 2.6875 -5.875 2.566406 -5.753906 C 2.445312 -5.632812 2.351562 -5.492188 2.28125 -5.328125 C 2.210938 -5.164062 2.171875 -4.988281 2.171875 -4.800781 L 2.171875 -2.09375 C 2.171875 -1.90625 2.207031 -1.734375 2.28125 -1.574219 C 2.351562 -1.414062 2.445312 -1.269531 2.566406 -1.148438 C 2.6875 -1.023438 2.828125 -0.925781 2.992188 -0.851562 C 3.15625 -0.78125 3.332031 -0.746094 3.519531 -0.746094 L 3.8125 -0.746094 C 4 -0.746094 4.175781 -0.78125 4.339844 -0.851562 C 4.503906 -0.925781 4.648438 -1.023438 4.765625 -1.148438 C 4.886719 -1.273438 4.980469 -1.414062 5.054688 -1.574219 C 5.125 -1.734375 5.160156 -1.90625 5.160156 -2.09375 C 5.160156 -2.136719 5.175781 -2.175781 5.207031 -2.207031 C 5.238281 -2.238281 5.277344 -2.253906 5.320312 -2.253906 L 5.917969 -2.253906 C 5.964844 -2.253906 6 -2.238281 6.027344 -2.207031 C 6.054688 -2.175781 6.066406 -2.136719 6.066406 -2.09375 Z "/>
</g>
</g>
<image id="source-14" x="0" y="0" width="0" height="0"/>
<mask id="mask-0">
<use xlink:href="#source-14"/>
</mask>
</defs>
<g fill="rgb(100%, 100%, 0%)" fill-opacity="1">
<use xlink:href="#glyph-0-0" x="30" y="30"/>
<use xlink:href="#glyph-0-1" x="37" y="30"/>
<use xlink:href="#glyph-0-2" x="44" y="30"/>
<use xlink:href="#glyph-0-3" x="51" y="30"/>
<use xlink:href="#glyph-0-4" x="58" y="30"/>
<use xlink:href="#glyph-0-5" x="65" y="30"/>
<use xlink:href="#glyph-0-6" x="72" y="30"/>
<use xlink:href="#glyph-0-7" x="79" y="30"/>
<use xlink:href="#glyph-0-8" x="86" y="30"/>
<use xlink:href="#glyph-0-9" x="93" y="30"/>
<use xlink:href="#glyph-0-7" x="100" y="30"/>
<use xlink:href="#glyph-0-4" x="107" y="30"/>
<use xlink:href="#glyph-0-10" x="114" y="30"/>
<use xlink:href="#glyph-0-2" x="121" y="30"/>
<use xlink:href="#glyph-0-1" x="128" y="30"/>
<use xlink:href="#glyph-0-7" x="135" y="30"/>
<use xlink:href="#glyph-0-11" x="142" y="30"/>
<use xlink:href="#glyph-0-8" x="149" y="30"/>
<use xlink:href="#glyph-0-12" x="156" y="30"/>
<use xlink:href="#glyph-0-3" x="163" y="30"/>
<use xlink:href="#glyph-0-8" x="170" y="30"/>
<use xlink:href="#glyph-0-13" x="177" y="30"/>
<use xlink:href="#glyph-0-4" x="184" y="30"/>
<use xlink:href="#glyph-0-10" x="191" y="30"/>
<use xlink:href="#glyph-0-7" x="198" y="30"/>
<use xlink:href="#glyph-0-3" x="205" y="30"/>
<use xlink:href="#glyph-0-10" x="212" y="30"/>
<use xlink:href="#glyph-0-8" x="219" y="30"/>
<use xlink:href="#glyph-0-11" x="226" y="30"/>
<use xlink:href="#glyph-0-14" x="233" y="30"/>
<use xlink:href="#glyph-0-4" x="240" y="30"/>
<use xlink:href="#glyph-0-15" x="247" y="30"/>
<use xlink:href="#glyph-0-7" x="254" y="30"/>
</g>
</svg>
