<?xml version="1.0" encoding="UTF-8"?>
<svg xmlns="http://www.w3.org/2000/svg" xmlns:xlink="http://www.w3.org/1999/xlink" width="854" height="480" viewBox="0 0 854 480">
<defs>
<g>
<g id="glyph-0-0">
<path d="M 6.761719 -5.214844 L 6.199219 -0.132812 C 6.183594 -0.0429688 6.132812 0 6.054688 0 L 4.839844 0 C 4.8125 0 4.785156 -0.0117188 4.753906 -0.0390625 C 4.722656 -0.0664062 4.703125 -0.09375 4.691406 -0.121094 L 3.917969 -3.746094 C 3.902344 -3.828125 3.886719 -3.925781 3.875 -4.039062 C 3.859375 -4.15625 3.847656 -4.269531 3.839844 -4.386719 C 3.820312 -4.511719 3.808594 -4.644531 3.800781 -4.785156 L 3.546875 -4.785156 C 3.539062 -4.644531 3.523438 -4.511719 3.507812 -4.386719 C 3.488281 -4.261719 3.472656 -4.144531 3.460938 -4.035156 C 3.445312 -3.921875 3.429688 -3.828125 3.414062 -3.746094 L 2.625 -0.121094 C 2.617188 -0.09375 2.597656 -0.0664062 2.566406 -0.0390625 C 2.535156 -0.0117188 2.507812 0 2.480469 0 L 1.28125 0 C 1.191406 0 1.136719 -0.0429688 1.121094 -0.132812 L 0.558594 -5.214844 L 0.425781 -9.746094 C 0.425781 -9.84375 0.476562 -9.894531 0.574219 -9.894531 L 1.171875 -9.894531 C 1.261719 -9.894531 1.316406 -9.847656 1.332031 -9.757812 L 1.453125 -5.28125 L 1.746094 -2.398438 C 1.765625 -2.285156 1.777344 -2.140625 1.78125 -1.972656 C 1.785156 -1.804688 1.792969 -1.644531 1.800781 -1.492188 C 1.800781 -1.304688 1.800781 -1.117188 1.800781 -0.921875 L 2.078125 -0.921875 C 2.097656 -1.117188 2.117188 -1.304688 2.132812 -1.492188 C 2.152344 -1.660156 2.171875 -1.828125 2.191406 -1.988281 C 2.214844 -2.148438 2.238281 -2.285156 2.265625 -2.398438 L 2.933594 -5.585938 C 2.941406 -5.613281 2.960938 -5.636719 2.992188 -5.660156 C 3.023438 -5.683594 3.054688 -5.691406 3.078125 -5.691406 L 4.253906 -5.691406 C 4.28125 -5.691406 4.308594 -5.683594 4.339844 -5.660156 C 4.371094 -5.636719 4.386719 -5.613281 4.386719 -5.585938 L 5.054688 -2.398438 C 5.082031 -2.285156 5.105469 -2.140625 5.125 -1.972656 C 5.148438 -1.804688 5.167969 -1.644531 5.1875 -1.492188 C 5.214844 -1.304688 5.234375 -1.117188 5.253906 -0.921875 L 5.53125 -0.921875 C 5.53125 -1.117188 5.53125 -1.304688 5.53125 -1.492188 C 5.542969 -1.660156 5.546875 -1.828125 5.554688 -1.988281 C 5.558594 -2.148438 5.5625 -2.285156 5.574219 -2.398438 L 5.867188 -5.28125 L 6 -9.757812 C 6.019531 -9.847656 6.070312 -9.894531 6.160156 -9.894531 L 6.761719 -9.894531 C 6.859375 -9.894531 6.90625 -9.84375 6.90625 -9.746094 Z "/>
</g>
<g id="glyph-0-1">
<path d="M 6.066406 -3.148438 C 6.066406 -3.050781 6.019531 -3 5.917969 -3 L 2.160156 -3 L 2.160156 -2.09375 C 2.160156 -1.90625 2.195312 -1.734375 2.265625 -1.574219 C 2.335938 -1.414062 2.433594 -1.269531 2.558594 -1.148438 C 2.683594 -1.023438 2.828125 -0.925781 2.992188 -0.851562 C 3.15625 -0.78125 3.332031 -0.746094 3.519531 -0.746094 L 3.8125 -0.746094 C 4.125 -0.746094 4.398438 -0.84375 4.640625 -1.035156 C 4.878906 -1.226562 5.039062 -1.460938 5.121094 -1.746094 C 5.148438 -1.835938 5.207031 -1.871094 5.304688 -1.851562 L 5.878906 -1.691406 C 5.925781 -1.683594 5.957031 -1.664062 5.980469 -1.625 C 6.003906 -1.589844 6.003906 -1.550781 5.988281 -1.507812 C 5.925781 -1.265625 5.824219 -1.046875 5.6875 -0.847656 C 5.550781 -0.648438 5.382812 -0.472656 5.191406 -0.328125 C 5 -0.179688 4.789062 -0.0625 4.554688 0.0195312 C 4.316406 0.105469 4.070312 0.148438 3.8125 0.148438 L 3.519531 0.148438 C 3.207031 0.148438 2.917969 0.0898438 2.648438 -0.0273438 C 2.375 -0.140625 2.136719 -0.300781 1.933594 -0.507812 C 1.730469 -0.710938 1.566406 -0.949219 1.445312 -1.21875 C 1.328125 -1.492188 1.265625 -1.78125 1.265625 -2.09375 L 1.265625 -4.800781 C 1.265625 -5.109375 1.328125 -5.402344 1.445312 -5.671875 C 1.566406 -5.945312 1.730469 -6.183594 1.933594 -6.386719 C 2.136719 -6.589844 2.375 -6.753906 2.648438 -6.875 C 2.917969 -6.992188 3.207031 -7.054688 3.519531 -7.054688 L 3.8125 -7.054688 C 4.125 -7.054688 4.414062 -6.992188 4.6875 -6.875 C 4.957031 -6.753906 5.195312 -6.589844 5.398438 -6.386719 C 5.605469 -6.183594 5.765625 -5.945312 5.886719 -5.671875 C 6.007812 -5.402344 6.066406 -5.109375 6.066406 -4.800781 Z M 5.160156 -4.800781 C 5.160156 -4.988281 5.125 -5.160156 5.054688 -5.328125 C 4.984375 -5.492188 4.886719 -5.632812 4.765625 -5.753906 C 4.644531 -5.875 4.503906 -5.96875 4.339844 -6.039062 C 4.175781 -6.109375 4 -6.148438 3.8125 -6.148438 L 3.519531 -6.148438 C 3.332031 -6.148438 3.15625 -6.109375 2.992188 -6.039062 C 2.828125 -5.96875 2.683594 -5.875 2.558594 -5.753906 C 2.433594 -5.632812 2.335938 -5.492188 2.265625 -5.328125 C 2.195312 -5.164062 2.160156 -4.988281 2.160156 -4.800781 L 2.160156 -3.894531 L 5.160156 -3.894531 Z "/>
</g>
<g id="glyph-0-2">
<path d="M 4.71875 -8.398438 C 4.71875 -8.355469 4.703125 -8.320312 4.671875 -8.292969 C 4.640625 -8.265625 4.605469 -8.253906 4.558594 -8.253906 L 3.375 -8.253906 C 3.328125 -8.253906 3.292969 -8.265625 3.261719 -8.292969 C 3.230469 -8.320312 3.214844 -8.355469 3.214844 -8.398438 L 3.214844 -9.601562 C 3.214844 -9.644531 3.230469 -9.679688 3.261719 -9.707031 C 3.292969 -9.734375 3.328125 -9.746094 3.375 -9.746094 L 4.558594 -9.746094 C 4.605469 -9.746094 4.640625 -9.734375 4.671875 -9.707031 C 4.703125 -9.679688 4.71875 -9.644531 4.71875 -9.601562 Z M 6.667969 -0.148438 C 6.667969 -0.0507812 6.617188 0 6.519531 0 L 1.121094 0 C 1.023438 0 0.972656 -0.0507812 0.972656 -0.148438 L 0.972656 -0.746094 C 0.972656 -0.84375 1.023438 -0.894531 1.121094 -0.894531 L 3.667969 -0.894531 L 3.667969 -6 L 1.71875 -6 C 1.621094 -6 1.574219 -6.046875 1.574219 -6.148438 L 1.574219 -6.746094 C 1.574219 -6.84375 1.621094 -6.894531 1.71875 -6.894531 L 4.414062 -6.894531 C 4.511719 -6.894531 4.558594 -6.84375 4.558594 -6.746094 L 4.558594 -0.894531 L 6.519531 -0.894531 C 6.617188 -0.894531 6.667969 -0.84375 6.667969 -0.746094 Z "/>
</g>
<g id="glyph-0-3">
<path d="M 5.945312 0.894531 C 5.945312 1.203125 5.886719 1.496094 5.765625 1.765625 C 5.644531 2.039062 5.484375 2.277344 5.28125 2.480469 C 5.074219 2.683594 4.835938 2.847656 4.566406 2.964844 C 4.296875 3.085938 4.003906 3.148438 3.691406 3.148438 L 3.398438 3.148438 C 3.089844 3.148438 2.796875 3.089844 2.527344 2.972656 C 2.253906 2.859375 2.019531 2.699219 1.8125 2.492188 C 1.734375 2.414062 1.734375 2.34375 1.8125 2.28125 L 2.226562 1.851562 C 2.304688 1.789062 2.378906 1.792969 2.441406 1.851562 C 2.566406 1.976562 2.707031 2.074219 2.875 2.140625 C 3.039062 2.207031 3.214844 2.238281 3.398438 2.238281 L 3.691406 2.238281 C 3.878906 2.238281 4.054688 2.203125 4.21875 2.132812 C 4.382812 2.0625 4.527344 1.964844 4.648438 1.847656 C 4.765625 1.726562 4.863281 1.585938 4.933594 1.421875 C 5.003906 1.257812 5.039062 1.078125 5.039062 0.894531 L 5.039062 -0.308594 C 4.851562 -0.164062 4.648438 -0.0546875 4.417969 0.0273438 C 4.191406 0.105469 3.949219 0.148438 3.691406 0.148438 L 3.398438 0.148438 C 3.089844 0.148438 2.796875 0.0859375 2.527344 -0.0351562 C 2.253906 -0.152344 2.019531 -0.316406 1.8125 -0.519531 C 1.609375 -0.722656 1.445312 -0.960938 1.328125 -1.234375 C 1.207031 -1.503906 1.148438 -1.796875 1.148438 -2.105469 L 1.148438 -4.800781 C 1.148438 -5.109375 1.207031 -5.40625 1.328125 -5.679688 C 1.445312 -5.957031 1.609375 -6.195312 1.8125 -6.398438 C 2.015625 -6.605469 2.253906 -6.765625 2.527344 -6.878906 C 2.796875 -6.996094 3.089844 -7.054688 3.398438 -7.054688 L 3.691406 -7.054688 C 4.207031 -7.054688 4.65625 -6.902344 5.039062 -6.601562 L 5.039062 -6.746094 C 5.039062 -6.789062 5.054688 -6.828125 5.085938 -6.851562 C 5.117188 -6.878906 5.15625 -6.894531 5.199219 -6.894531 L 5.800781 -6.894531 C 5.898438 -6.894531 5.945312 -6.84375 5.945312 -6.746094 Z M 5.039062 -4.800781 C 5.039062 -4.988281 5.003906 -5.160156 4.933594 -5.328125 C 4.863281 -5.492188 4.765625 -5.636719 4.648438 -5.761719 C 4.527344 -5.886719 4.382812 -5.980469 4.21875 -6.054688 C 4.054688 -6.125 3.878906 -6.160156 3.691406 -6.160156 L 3.398438 -6.160156 C 3.210938 -6.160156 3.039062 -6.125 2.875 -6.054688 C 2.710938 -5.984375 2.566406 -5.882812 2.445312 -5.761719 C 2.328125 -5.636719 2.230469 -5.492188 2.160156 -5.328125 C 2.089844 -5.164062 2.054688 -4.988281 2.054688 -4.800781 L 2.054688 -2.105469 C 2.054688 -1.917969 2.089844 -1.746094 2.160156 -1.578125 C 2.230469 -1.414062 2.328125 -1.273438 2.445312 -1.152344 C 2.566406 -1.03125 2.707031 -0.9375 2.875 -0.867188 C 3.039062 -0.796875 3.214844 -0.761719 3.398438 -0.761719 L 3.691406 -0.761719 C 3.878906 -0.761719 4.054688 -0.796875 4.21875 -0.867188 C 4.382812 -0.9375 4.527344 -1.035156 4.648438 -1.152344 C 4.765625 -1.273438 4.863281 -1.414062 4.933594 -1.578125 C 5.003906 -1.742188 5.039062 -1.921875 5.039062 -2.105469 Z "/>
</g>
<g id="glyph-0-4">
<path d="M 6.1875 -0.148438 C 6.1875 -0.0507812 6.136719 0 6.039062 0 L 5.441406 0 C 5.394531 0 5.359375 -0.0117188 5.328125 -0.0390625 C 5.296875 -0.0664062 5.28125 -0.101562 5.28125 -0.148438 L 5.28125 -4.800781 C 5.28125 -4.988281 5.246094 -5.160156 5.171875 -5.328125 C 5.101562 -5.492188 5.007812 -5.632812 4.886719 -5.753906 C 4.765625 -5.875 4.625 -5.96875 4.460938 -6.039062 C 4.296875 -6.109375 4.121094 -6.148438 3.933594 -6.148438 L 3.640625 -6.148438 C 3.453125 -6.148438 3.277344 -6.109375 3.113281 -6.039062 C 2.949219 -5.96875 2.804688 -5.875 2.6875 -5.753906 C 2.566406 -5.632812 2.472656 -5.492188 2.398438 -5.328125 C 2.328125 -5.164062 2.292969 -4.988281 2.292969 -4.800781 L 2.292969 -0.148438 C 2.292969 -0.101562 2.277344 -0.0664062 2.246094 -0.0390625 C 2.214844 -0.0117188 2.175781 0 2.132812 0 L 1.535156 0 C 1.4375 0 1.386719 -0.0507812 1.386719 -0.148438 L 1.386719 -9.746094 C 1.386719 -9.84375 1.433594 -9.894531 1.535156 -9.894531 L 2.132812 -9.894531 C 2.175781 -9.894531 2.214844 -9.878906 2.246094 -9.851562 C 2.277344 -9.824219 2.292969 -9.789062 2.292969 -9.746094 L 2.292969 -6.601562 C 2.480469 -6.742188 2.6875 -6.851562 2.914062 -6.933594 C 3.140625 -7.011719 3.382812 -7.054688 3.640625 -7.054688 L 3.933594 -7.054688 C 4.246094 -7.054688 4.535156 -6.992188 4.804688 -6.875 C 5.078125 -6.753906 5.316406 -6.589844 5.519531 -6.386719 C 5.722656 -6.183594 5.886719 -5.945312 6.007812 -5.671875 C 6.125 -5.402344 6.1875 -5.109375 6.1875 -4.800781 Z "/>
</g>
<g id="glyph-0-5">
<path d="M 6.359375 -2.09375 C 6.359375 -1.78125 6.300781 -1.492188 6.1875 -1.21875 C 6.070312 -0.949219 5.910156 -0.710938 5.707031 -0.507812 C 5.503906 -0.300781 5.265625 -0.140625 4.992188 -0.0273438 C 4.722656 0.0898438 4.429688 0.148438 4.121094 0.148438 C 3.808594 0.148438 3.519531 0.0898438 3.246094 -0.0273438 C 2.976562 -0.140625 2.738281 -0.300781 2.535156 -0.507812 C 2.328125 -0.710938 2.167969 -0.949219 2.046875 -1.21875 C 1.925781 -1.492188 1.867188 -1.78125 1.867188 -2.09375 L 1.867188 -5.691406 L 0.8125 -5.691406 C 0.769531 -5.691406 0.734375 -5.707031 0.707031 -5.738281 C 0.679688 -5.769531 0.667969 -5.808594 0.667969 -5.851562 L 0.667969 -6.453125 C 0.667969 -6.550781 0.714844 -6.601562 0.8125 -6.601562 L 1.867188 -6.601562 L 1.867188 -9.746094 C 1.867188 -9.84375 1.914062 -9.894531 2.011719 -9.894531 L 2.613281 -9.894531 C 2.65625 -9.894531 2.695312 -9.878906 2.726562 -9.851562 C 2.757812 -9.824219 2.773438 -9.789062 2.773438 -9.746094 L 2.773438 -6.601562 L 5.613281 -6.601562 C 5.710938 -6.601562 5.761719 -6.550781 5.761719 -6.453125 L 5.761719 -5.851562 C 5.761719 -5.808594 5.746094 -5.769531 5.71875 -5.738281 C 5.691406 -5.707031 5.65625 -5.691406 5.613281 -5.691406 L 2.773438 -5.691406 L 2.773438 -2.09375 C 2.773438 -1.90625 2.808594 -1.734375 2.878906 -1.574219 C 2.949219 -1.414062 3.046875 -1.269531 3.167969 -1.148438 C 3.285156 -1.023438 3.429688 -0.925781 3.59375 -0.851562 C 3.757812 -0.78125 3.933594 -0.746094 4.121094 -0.746094 C 4.308594 -0.746094 4.480469 -0.78125 4.648438 -0.851562 C 4.8125 -0.925781 4.953125 -1.023438 5.074219 -1.148438 C 5.195312 -1.273438 5.289062 -1.414062 5.359375 -1.574219 C 5.429688 -1.734375 5.464844 -1.90625 5.464844 -2.09375 L 5.464844 -2.398438 C 5.464844 -2.496094 5.515625 -2.546875 5.613281 -2.546875 L 6.214844 -2.546875 C 6.3125 -2.546875 6.359375 -2.496094 6.359375 -2.398438 Z "/>
</g>
<g id="glyph-0-6">
<rect x="0" y="0" width="0" height="0" mask="url(#mask-0)"/>
</g>
<g id="glyph-0-7">
<path d="M 6.359375 -9.144531 C 6.359375 -9.046875 6.3125 -9 6.214844 -9 L 4.121094 -9 L 4.121094 -0.148438 C 4.121094 -0.101562 4.105469 -0.0664062 4.074219 -0.0390625 C 4.042969 -0.0117188 4.003906 0 3.960938 0 L 3.375 0 C 3.328125 0 3.292969 -0.0117188 3.261719 -0.0390625 C 3.230469 -0.0664062 3.214844 -0.101562 3.214844 -0.148438 L 3.214844 -9 L 1.121094 -9 C 1.023438 -9 0.972656 -9.046875 0.972656 -9.144531 L 0.972656 -9.746094 C 0.972656 -9.84375 1.023438 -9.894531 1.121094 -9.894531 L 6.214844 -9.894531 C 6.3125 -9.894531 6.359375 -9.84375 6.359375 -9.746094 Z "/>
</g>
<g id="glyph-0-8">
<path d="M 6.066406 -6.707031 C 5.746094 -5.542969 5.445312 -4.453125 5.160156 -3.441406 C 4.992188 -2.84375 4.851562 -2.355469 4.746094 -1.972656 C 4.640625 -1.589844 4.535156 -1.21875 4.433594 -0.851562 C 4.332031 -0.488281 4.238281 -0.152344 4.152344 0.152344 C 4.070312 0.460938 4 0.703125 3.945312 0.878906 C 3.839844 1.234375 3.703125 1.511719 3.535156 1.714844 C 3.363281 1.914062 3.171875 2.0625 2.953125 2.167969 C 2.734375 2.269531 2.496094 2.332031 2.234375 2.359375 C 1.972656 2.386719 1.699219 2.398438 1.414062 2.398438 L 1.121094 2.398438 C 1.023438 2.398438 0.972656 2.351562 0.972656 2.253906 L 0.972656 1.652344 C 0.972656 1.609375 0.988281 1.570312 1.011719 1.539062 C 1.039062 1.507812 1.074219 1.492188 1.121094 1.492188 L 1.414062 1.492188 C 1.785156 1.492188 2.074219 1.476562 2.28125 1.441406 C 2.484375 1.40625 2.648438 1.328125 2.765625 1.214844 C 2.886719 1.097656 2.980469 0.929688 3.054688 0.707031 C 3.125 0.484375 3.21875 0.183594 3.332031 -0.199219 L 1.359375 -6.707031 C 1.332031 -6.832031 1.382812 -6.894531 1.507812 -6.894531 L 2.132812 -6.894531 C 2.160156 -6.894531 2.1875 -6.882812 2.21875 -6.859375 C 2.25 -6.835938 2.269531 -6.8125 2.28125 -6.785156 L 3.761719 -1.652344 L 5.1875 -6.785156 C 5.195312 -6.8125 5.214844 -6.835938 5.246094 -6.859375 C 5.277344 -6.882812 5.304688 -6.894531 5.332031 -6.894531 L 5.933594 -6.894531 C 5.988281 -6.894531 6.027344 -6.875 6.054688 -6.839844 C 6.082031 -6.804688 6.085938 -6.761719 6.066406 -6.707031 Z "/>
</g>
<g id="glyph-0-9">
<path d="M 6.121094 -0.148438 C 6.121094 -0.0507812 6.070312 0 5.972656 0 L 5.375 0 C 5.277344 0 5.226562 -0.0507812 5.226562 -0.148438 L 5.226562 -4.800781 C 5.226562 -4.988281 5.191406 -5.160156 5.121094 -5.328125 C 5.050781 -5.492188 4.953125 -5.632812 4.832031 -5.753906 C 4.710938 -5.875 4.570312 -5.96875 4.40625 -6.039062 C 4.242188 -6.109375 4.066406 -6.148438 3.878906 -6.148438 L 3.574219 -6.148438 C 3.386719 -6.148438 3.210938 -6.109375 3.046875 -6.039062 C 2.882812 -5.96875 2.738281 -5.875 2.621094 -5.753906 C 2.5 -5.632812 2.40625 -5.492188 2.332031 -5.328125 C 2.261719 -5.164062 2.226562 -4.988281 2.226562 -4.800781 L 2.226562 -0.148438 C 2.226562 -0.0507812 2.175781 0 2.078125 0 L 1.480469 0 C 1.382812 0 1.332031 -0.0507812 1.332031 -0.148438 L 1.332031 -6.746094 C 1.332031 -6.84375 1.382812 -6.894531 1.480469 -6.894531 L 2.078125 -6.894531 C 2.175781 -6.894531 2.226562 -6.84375 2.226562 -6.746094 L 2.226562 -6.601562 C 2.414062 -6.742188 2.621094 -6.851562 2.847656 -6.933594 C 3.074219 -7.011719 3.316406 -7.054688 3.574219 -7.054688 L 3.878906 -7.054688 C 4.191406 -7.054688 4.480469 -6.992188 4.753906 -6.875 C 5.023438 -6.753906 5.261719 -6.589844 5.464844 -6.386719 C 5.671875 -6.183594 5.832031 -5.945312 5.945312 -5.671875 C 6.0625 -5.402344 6.121094 -5.109375 6.121094 -4.800781 Z "/>
</g>
<g id="glyph-0-10">
<path d="M 6.972656 -7.199219 C 6.972656 -7.15625 6.957031 -7.121094 6.925781 -7.09375 C 6.894531 -7.066406 6.859375 -7.054688 6.8125 -7.054688 L 6.214844 -7.054688 C 6.117188 -7.054688 6.066406 -7.101562 6.066406 -7.199219 L 6.066406 -7.800781 C 6.066406 -8.199219 5.953125 -8.523438 5.726562 -8.773438 C 5.5 -9.023438 5.214844 -9.144531 4.867188 -9.144531 L 4.414062 -9.144531 C 4.066406 -9.144531 3.78125 -9.023438 3.554688 -8.773438 C 3.328125 -8.523438 3.214844 -8.199219 3.214844 -7.800781 L 3.214844 -6.601562 L 4.867188 -6.601562 C 4.964844 -6.601562 5.011719 -6.550781 5.011719 -6.453125 L 5.011719 -5.851562 C 5.011719 -5.808594 5 -5.769531 4.972656 -5.738281 C 4.945312 -5.707031 4.910156 -5.691406 4.867188 -5.691406 L 3.214844 -5.691406 L 3.214844 -0.894531 L 5.761719 -0.894531 C 5.804688 -0.894531 5.84375 -0.878906 5.875 -0.851562 C 5.90625 -0.824219 5.917969 -0.792969 5.917969 -0.746094 L 5.917969 -0.148438 C 5.917969 -0.101562 5.90625 -0.0664062 5.875 -0.0390625 C 5.84375 -0.0117188 5.804688 0 5.761719 0 L 1.121094 0 C 1.023438 0 0.972656 -0.0507812 0.972656 -0.148438 L 0.972656 -0.746094 C 0.972656 -0.84375 1.023438 -0.894531 1.121094 -0.894531 L 2.320312 -0.894531 L 2.320312 -5.691406 L 1.265625 -5.691406 C 1.222656 -5.691406 1.1875 -5.707031 1.160156 -5.738281 C 1.132812 -5.769531 1.121094 -5.808594 1.121094 -5.851562 L 1.121094 -6.453125 C 1.121094 -6.550781 1.167969 -6.601562 1.265625 -6.601562 L 2.320312 -6.601562 L 2.320312 -7.800781 C 2.320312 -8.09375 2.367188 -8.378906 2.464844 -8.652344 C 2.5625 -8.929688 2.703125 -9.167969 2.878906 -9.375 C 3.058594 -9.578125 3.277344 -9.742188 3.539062 -9.867188 C 3.800781 -9.992188 4.09375 -10.054688 4.414062 -10.054688 L 4.867188 -10.054688 C 5.1875 -10.054688 5.476562 -9.992188 5.738281 -9.867188 C 6 -9.742188 6.222656 -9.578125 6.40625 -9.375 C 6.589844 -9.167969 6.730469 -8.929688 6.828125 -8.652344 C 6.925781 -8.378906 6.972656 -8.09375 6.972656 -7.800781 Z "/>
</g>
<g id="glyph-0-11">
<path d="M 6.066406 -2.09375 C 6.066406 -1.78125 6.007812 -1.492188 5.886719 -1.21875 C 5.765625 -0.949219 5.605469 -0.710938 5.398438 -0.507812 C 5.195312 -0.300781 4.957031 -0.140625 4.6875 -0.0273438 C 4.414062 0.0898438 4.125 0.148438 3.8125 0.148438 L 3.519531 0.148438 C 3.207031 0.148438 2.917969 0.0898438 2.648438 -0.0273438 C 2.375 -0.140625 2.136719 -0.300781 1.933594 -0.507812 C 1.730469 -0.710938 1.566406 -0.949219 1.445312 -1.21875 C 1.328125 -1.492188 1.265625 -1.78125 1.265625 -2.09375 L 1.265625 -4.800781 C 1.265625 -5.109375 1.328125 -5.402344 1.445312 -5.671875 C 1.566406 -5.945312 1.730469 -6.183594 1.933594 -6.386719 C 2.136719 -6.589844 2.375 -6.753906 2.648438 -6.875 C 2.917969 -6.992188 3.207031 -7.054688 3.519531 -7.054688 L 3.8125 -7.054688 C 4.125 -7.054688 4.414062 -6.992188 4.6875 -6.875 C 4.957031 -6.753906 5.195312 -6.589844 5.398438 -6.386719 C 5.605469 -6.183594 5.765625 -5.945312 5.886719 -5.671875 C 6.007812 -5.402344 6.066406 -5.109375 6.066406 -4.800781 Z M 5.160156 -4.800781 C 5.160156 -4.988281 5.125 -5.160156 5.054688 -5.328125 C 4.984375 -5.492188 4.886719 -5.632812 4.765625 -5.753906 C 4.644531 -5.875 4.503906 -5.96875 4.339844 -6.039062 C 4.175781 -6.109375 4 -6.148438 3.8125 -6.148438 L 3.519531 -6.148438 C 3.332031 -6.148438 3.15625 -6.109375 2.992188 -6.039062 C 2.828125 -5.96875 2.6875 -5.875 2.566406 -5.753906 C 2.445312 -5.632812 2.351562 -5.492188 2.28125 -5.328125 C 2.210938 -5.164062 2.171875 -4.988281 2.171875 -4.800781 L 2.171875 -2.09375 C 2.171875 -1.90625 2.207031 -1.734375 2.28125 -1.574219 C 2.351562 -1.414062 2.445312 -1.269531 2.566406 -1.148438 C 2.6875 -1.023438 2.828125 -0.925781 2.992188 -0.851562 C 3.15625 -0.78125 3.332031 -0.746094 3.519531 -0.746094 L 3.8125 -0.746094 C 4 -0.746094 4.175781 -0.78125 4.339844 -0.851562 C 4.503906 -0.925781 4.648438 -1.023438 4.765625 -1.148438 C 4.886719 -1.273438 4.980469 -1.414062 5.054688 -1.574219 C 5.125 -1.734375 5.160156 -1.90625 5.160156 -2.09375 Z "/>
</g>
<g id="glyph-0-12">
<path d="M 6.359375 -3.601562 C 6.359375 -3.503906 6.3125 -3.453125 6.214844 -3.453125 L 5.613281 -3.453125 C 5.515625 -3.453125 5.464844 -3.503906 5.464844 -3.601562 L 5.464844 -4.800781 C 5.464844 -5.003906 5.429688 -5.1875 5.351562 -5.351562 C 5.277344 -5.515625 5.175781 -5.65625 5.054688 -5.773438 C 4.929688 -5.890625 4.785156 -5.980469 4.625 -6.046875 C 4.464844 -6.113281 4.296875 -6.148438 4.121094 -6.148438 L 3.8125 -6.148438 C 3.644531 -6.148438 3.476562 -6.113281 3.3125 -6.046875 C 3.148438 -5.980469 3.003906 -5.890625 2.878906 -5.773438 C 2.753906 -5.65625 2.65625 -5.519531 2.578125 -5.351562 C 2.503906 -5.1875 2.464844 -5.003906 2.464844 -4.800781 L 2.464844 -0.894531 L 5.011719 -0.894531 C 5.109375 -0.894531 5.160156 -0.84375 5.160156 -0.746094 L 5.160156 -0.148438 C 5.160156 -0.0507812 5.109375 0 5.011719 0 L 0.519531 0 C 0.421875 0 0.375 -0.0507812 0.375 -0.148438 L 0.375 -0.746094 C 0.375 -0.84375 0.421875 -0.894531 0.519531 -0.894531 L 1.574219 -0.894531 L 1.574219 -4.800781 C 1.574219 -5.09375 1.628906 -5.378906 1.738281 -5.652344 C 1.851562 -5.929688 2.007812 -6.167969 2.207031 -6.375 C 2.40625 -6.578125 2.644531 -6.742188 2.921875 -6.867188 C 3.195312 -6.992188 3.492188 -7.054688 3.8125 -7.054688 L 4.121094 -7.054688 C 4.441406 -7.054688 4.738281 -6.992188 5.011719 -6.867188 C 5.289062 -6.742188 5.527344 -6.578125 5.726562 -6.375 C 5.925781 -6.167969 6.082031 -5.929688 6.191406 -5.652344 C 6.304688 -5.378906 6.359375 -5.09375 6.359375 -4.800781 Z "/>
</g>
<g id="glyph-0-13">
<path d="M 6.359375 -9.144531 C 6.359375 -9.046875 6.3125 -9 6.214844 -9 L 2.464844 -9 L 2.464844 -5.398438 L 5.917969 -5.398438 C 6.015625 -5.398438 6.066406 -5.351562 6.066406 -5.253906 L 6.066406 -4.652344 C 6.066406 -4.609375 6.054688 -4.570312 6.027344 -4.539062 C 6 -4.507812 5.964844 -4.492188 5.917969 -4.492188 L 2.464844 -4.492188 L 2.464844 -0.148438 C 2.464844 -0.0507812 2.417969 0 2.320312 0 L 1.71875 0 C 1.621094 0 1.574219 -0.0507812 1.574219 -0.148438 L 1.574219 -9.746094 C 1.574219 -9.84375 1.621094 -9.894531 1.71875 -9.894531 L 6.214844 -9.894531 C 6.3125 -9.894531 6.359375 -9.84375 6.359375 -9.746094 Z "/>
</g>
<g id="glyph-0-14">
<path d="M 6.667969 -0.148438 C 6.667969 -0.0507812 6.617188 0 6.519531 0 L 6.214844 0 C 6.019531 0 5.839844 -0.0507812 5.679688 -0.148438 C 5.519531 -0.246094 5.390625 -0.378906 5.292969 -0.546875 C 5.042969 -0.324219 4.765625 -0.152344 4.453125 -0.0351562 C 4.140625 0.0859375 3.832031 0.148438 3.519531 0.148438 L 3.214844 0.148438 C 2.9375 0.148438 2.679688 0.101562 2.441406 0.0078125 C 2.199219 -0.0859375 1.992188 -0.214844 1.820312 -0.375 C 1.648438 -0.535156 1.511719 -0.722656 1.414062 -0.941406 C 1.316406 -1.160156 1.265625 -1.394531 1.265625 -1.652344 L 1.265625 -1.945312 C 1.265625 -2.363281 1.363281 -2.703125 1.554688 -2.960938 C 1.746094 -3.21875 1.984375 -3.425781 2.273438 -3.578125 C 2.5625 -3.734375 2.875 -3.859375 3.214844 -3.945312 C 3.550781 -4.035156 3.863281 -4.121094 4.152344 -4.199219 C 4.441406 -4.28125 4.683594 -4.375 4.875 -4.488281 C 5.066406 -4.597656 5.160156 -4.75 5.160156 -4.945312 C 5.160156 -5.292969 5.035156 -5.578125 4.785156 -5.804688 C 4.539062 -6.03125 4.214844 -6.148438 3.8125 -6.148438 L 3.667969 -6.148438 C 3.480469 -6.148438 3.304688 -6.109375 3.140625 -6.039062 C 2.976562 -5.96875 2.832031 -5.875 2.714844 -5.753906 C 2.59375 -5.632812 2.496094 -5.492188 2.425781 -5.328125 C 2.355469 -5.164062 2.320312 -4.988281 2.320312 -4.800781 L 2.320312 -4.492188 C 2.320312 -4.457031 2.304688 -4.425781 2.273438 -4.394531 C 2.242188 -4.363281 2.207031 -4.347656 2.171875 -4.347656 L 1.574219 -4.347656 C 1.527344 -4.347656 1.492188 -4.363281 1.460938 -4.394531 C 1.429688 -4.425781 1.414062 -4.457031 1.414062 -4.492188 L 1.414062 -4.800781 C 1.414062 -5.109375 1.472656 -5.402344 1.59375 -5.671875 C 1.714844 -5.945312 1.875 -6.183594 2.078125 -6.386719 C 2.285156 -6.589844 2.523438 -6.753906 2.792969 -6.875 C 3.0625 -6.992188 3.355469 -7.054688 3.667969 -7.054688 L 3.8125 -7.054688 C 4.105469 -7.054688 4.390625 -7.003906 4.667969 -6.90625 C 4.941406 -6.808594 5.183594 -6.667969 5.386719 -6.488281 C 5.589844 -6.304688 5.753906 -6.082031 5.878906 -5.820312 C 6.003906 -5.558594 6.066406 -5.265625 6.066406 -4.945312 L 6.066406 -1.054688 C 6.066406 -1.007812 6.078125 -0.972656 6.105469 -0.941406 C 6.132812 -0.910156 6.167969 -0.894531 6.214844 -0.894531 L 6.519531 -0.894531 C 6.617188 -0.894531 6.667969 -0.84375 6.667969 -0.746094 Z M 5.160156 -3.652344 C 5.035156 -3.589844 4.910156 -3.539062 4.78125 -3.5 C 4.652344 -3.460938 4.519531 -3.417969 4.386719 -3.375 C 4.199219 -3.320312 3.980469 -3.261719 3.726562 -3.199219 C 3.472656 -3.136719 3.230469 -3.054688 3 -2.953125 C 2.769531 -2.851562 2.574219 -2.71875 2.414062 -2.558594 C 2.253906 -2.398438 2.171875 -2.195312 2.171875 -1.945312 L 2.171875 -1.652344 C 2.171875 -1.414062 2.261719 -1.203125 2.441406 -1.019531 C 2.617188 -0.835938 2.875 -0.746094 3.214844 -0.746094 L 3.519531 -0.746094 C 3.722656 -0.746094 3.925781 -0.785156 4.125 -0.867188 C 4.324219 -0.945312 4.503906 -1.050781 4.652344 -1.171875 C 4.804688 -1.296875 4.925781 -1.441406 5.019531 -1.605469 C 5.113281 -1.769531 5.160156 -1.933594 5.160156 -2.09375 Z "/>
</g>
<g id="glyph-0-15">
<path d="M 6 -0.148438 C 6 -0.0507812 5.949219 0 5.851562 0 L 5.253906 0 C 5.15625 0 5.105469 -0.0507812 5.105469 -0.148438 L 5.105469 -0.292969 C 4.714844 0 4.265625 0.148438 3.761719 0.148438 L 3.453125 0.148438 C 3.140625 0.148438 2.851562 0.0898438 2.578125 -0.0273438 C 2.308594 -0.140625 2.070312 -0.300781 1.867188 -0.507812 C 1.664062 -0.710938 1.503906 -0.949219 1.386719 -1.21875 C 1.269531 -1.492188 1.214844 -1.78125 1.214844 -2.09375 L 1.214844 -6.746094 C 1.214844 -6.84375 1.261719 -6.894531 1.359375 -6.894531 L 1.960938 -6.894531 C 2.058594 -6.894531 2.105469 -6.84375 2.105469 -6.746094 L 2.105469 -2.09375 C 2.105469 -1.90625 2.140625 -1.734375 2.214844 -1.574219 C 2.285156 -1.414062 2.378906 -1.269531 2.5 -1.148438 C 2.621094 -1.023438 2.761719 -0.925781 2.925781 -0.851562 C 3.089844 -0.78125 3.265625 -0.746094 3.453125 -0.746094 L 3.761719 -0.746094 C 3.945312 -0.746094 4.121094 -0.78125 4.285156 -0.851562 C 4.449219 -0.925781 4.59375 -1.023438 4.714844 -1.148438 C 4.832031 -1.273438 4.929688 -1.414062 5 -1.574219 C 5.070312 -1.734375 5.105469 -1.90625 5.105469 -2.09375 L 5.105469 -6.746094 C 5.105469 -6.84375 5.15625 -6.894531 5.253906 -6.894531 L 5.851562 -6.894531 C 5.949219 -6.894531 6 -6.84375 6 -6.746094 Z "/>
</g>
<g id="glyph-0-16">
<path d="M 6.214844 -2.09375 C 6.214844 -1.78125 6.15625 -1.492188 6.039062 -1.21875 C 5.925781 -0.949219 5.765625 -0.710938 5.558594 -0.507812 C 5.355469 -0.300781 5.117188 -0.140625 4.839844 -0.0273438 C 4.5625 0.0898438 4.269531 0.148438 3.960938 0.148438 L 3.375 0.148438 C 3.0625 0.148438 2.769531 0.0898438 2.492188 -0.0273438 C 2.21875 -0.140625 1.976562 -0.300781 1.773438 -0.507812 C 1.570312 -0.710938 1.410156 -0.949219 1.292969 -1.21875 C 1.175781 -1.492188 1.121094 -1.78125 1.121094 -2.09375 L 1.121094 -2.398438 C 1.121094 -2.496094 1.167969 -2.546875 1.265625 -2.546875 L 1.867188 -2.546875 C 1.964844 -2.546875 2.011719 -2.496094 2.011719 -2.398438 L 2.011719 -2.09375 C 2.011719 -1.90625 2.050781 -1.734375 2.121094 -1.574219 C 2.191406 -1.414062 2.289062 -1.269531 2.414062 -1.148438 C 2.539062 -1.023438 2.683594 -0.925781 2.847656 -0.851562 C 3.011719 -0.78125 3.1875 -0.746094 3.375 -0.746094 L 3.960938 -0.746094 C 4.148438 -0.746094 4.320312 -0.78125 4.488281 -0.851562 C 4.652344 -0.925781 4.796875 -1.023438 4.917969 -1.148438 C 5.042969 -1.273438 5.140625 -1.414062 5.214844 -1.574219 C 5.285156 -1.734375 5.320312 -1.90625 5.320312 -2.09375 L 5.320312 -2.546875 C 5.320312 -2.9375 5.21875 -3.261719 5.019531 -3.511719 C 4.820312 -3.765625 4.570312 -3.992188 4.265625 -4.1875 C 3.964844 -4.382812 3.640625 -4.566406 3.292969 -4.738281 C 2.945312 -4.914062 2.621094 -5.113281 2.320312 -5.339844 C 2.019531 -5.566406 1.765625 -5.835938 1.566406 -6.152344 C 1.367188 -6.46875 1.265625 -6.867188 1.265625 -7.347656 L 1.265625 -7.800781 C 1.265625 -8.109375 1.328125 -8.402344 1.445312 -8.671875 C 1.566406 -8.945312 1.730469 -9.183594 1.933594 -9.386719 C 2.136719 -9.589844 2.375 -9.753906 2.648438 -9.875 C 2.917969 -9.992188 3.207031 -10.054688 3.519531 -10.054688 L 3.8125 -10.054688 C 4.125 -10.054688 4.414062 -9.992188 4.6875 -9.875 C 4.957031 -9.753906 5.195312 -9.589844 5.398438 -9.386719 C 5.605469 -9.183594 5.765625 -8.945312 5.886719 -8.671875 C 6.007812 -8.402344 6.066406 -8.109375 6.066406 -7.800781 L 6.066406 -7.492188 C 6.066406 -7.457031 6.054688 -7.425781 6.027344 -7.394531 C 6 -7.363281 5.964844 -7.347656 5.917969 -7.347656 L 5.320312 -7.347656 C 5.277344 -7.347656 5.238281 -7.363281 5.207031 -7.394531 C 5.175781 -7.425781 5.160156 -7.457031 5.160156 -7.492188 L 5.160156 -7.800781 C 5.160156 -7.988281 5.125 -8.160156 5.054688 -8.328125 C 4.984375 -8.492188 4.886719 -8.632812 4.765625 -8.753906 C 4.644531 -8.875 4.503906 -8.96875 4.339844 -9.039062 C 4.175781 -9.109375 4 -9.144531 3.8125 -9.144531 L 3.519531 -9.144531 C 3.332031 -9.144531 3.15625 -9.109375 2.992188 -9.039062 C 2.828125 -8.96875 2.6875 -8.875 2.566406 -8.753906 C 2.445312 -8.632812 2.351562 -8.492188 2.28125 -8.328125 C 2.210938 -8.164062 2.171875 -7.988281 2.171875 -7.800781 L 2.171875 -7.347656 C 2.171875 -6.984375 2.273438 -6.683594 2.472656 -6.445312 C 2.671875 -6.210938 2.921875 -5.996094 3.21875 -5.804688 C 3.515625 -5.613281 3.84375 -5.433594 4.191406 -5.261719 C 4.542969 -5.085938 4.867188 -4.882812 5.167969 -4.648438 C 5.464844 -4.410156 5.714844 -4.125 5.914062 -3.792969 C 6.113281 -3.460938 6.214844 -3.042969 6.214844 -2.546875 Z "/>
</g>
<g id="glyph-0-17">
<path d="M 6.667969 -0.148438 C 6.667969 -0.0507812 6.617188 0 6.519531 0 L 0.972656 0 C 0.929688 0 0.890625 -0.0117188 0.859375 -0.0390625 C 0.828125 -0.0664062 0.8125 -0.101562 0.8125 -0.148438 L 0.8125 -0.746094 C 0.8125 -0.789062 0.828125 -0.828125 0.859375 -0.851562 C 0.890625 -0.878906 0.929688 -0.894531 0.972656 -0.894531 L 3.519531 -0.894531 L 3.519531 -9 L 1.574219 -9 C 1.527344 -9 1.492188 -9.011719 1.460938 -9.039062 C 1.429688 -9.066406 1.414062 -9.101562 1.414062 -9.144531 L 1.414062 -9.746094 C 1.414062 -9.789062 1.429688 -9.828125 1.460938 -9.851562 C 1.492188 -9.878906 1.527344 -9.894531 1.574219 -9.894531 L 4.265625 -9.894531 C 4.363281 -9.894531 4.414062 -9.84375 4.414062 -9.746094 L 4.414062 -0.894531 L 6.519531 -0.894531 C 6.617188 -0.894531 6.667969 -0.84375 6.667969 -0.746094 Z "/>
</g>
<g id="glyph-0-18">
<path d="M 6.066406 -2.09375 C 6.066406 -1.78125 6.007812 -1.492188 5.886719 -1.21875 C 5.765625 -0.949219 5.605469 -0.710938 5.398438 -0.507812 C 5.195312 -0.300781 4.957031 -0.140625 4.6875 -0.0273438 C 4.414062 0.0898438 4.125 0.148438 3.8125 0.148438 L 3.519531 0.148438 C 3.207031 0.148438 2.917969 0.0898438 2.648438 -0.0273438 C 2.375 -0.140625 2.136719 -0.300781 1.933594 -0.507812 C 1.730469 -0.710938 1.566406 -0.949219 1.445312 -1.21875 C 1.328125 -1.492188 1.265625 -1.78125 1.265625 -2.09375 L 1.265625 -4.800781 C 1.265625 -5.109375 1.328125 -5.402344 1.445312 -5.671875 C 1.566406 -5.945312 1.730469 -6.183594 1.933594 -6.386719 C 2.136719 -6.589844 2.375 -6.753906 2.648438 -6.875 C 2.917969 -6.992188 3.207031 -7.054688 3.519531 -7.054688 L 3.8125 -7.054688 C 4.125 -7.054688 4.414062 -6.992188 4.6875 -6.875 C 4.957031 -6.753906 5.195312 -6.589844 5.398438 -6.386719 C 5.605469 -6.183594 5.765625 -5.945312 5.886719 -5.671875 C 6.007812 -5.402344 6.066406 -5.109375 6.066406 -4.800781 C 6.066406 -4.703125 6.019531 -4.652344 5.917969 -4.652344 L 5.320312 -4.652344 C 5.277344 -4.652344 5.238281 -4.667969 5.207031 -4.691406 C 5.175781 -4.71875 5.160156 -4.753906 5.160156 -4.800781 C 5.160156 -4.988281 5.125 -5.160156 5.054688 -5.328125 C 4.984375 -5.492188 4.886719 -5.632812 4.765625 -5.753906 C 4.644531 -5.875 4.503906 -5.96875 4.339844 -6.039062 C 4.175781 -6.109375 4 -6.148438 3.8125 -6.148438 L 3.519531 -6.148438 C 3.332031 -6.148438 3.15625 -6.109375 2.992188 -6.039062 C 2.828125 -5.96875 2.6875 -5.875 2.566406 -5.753906 C 2.445312 -5.632812 2.351562 -5.492188 2.28125 -5.328125 C 2.210938 -5.164062 2.171875 -4.988281 2.171875 -4.800781 L 2.171875 -2.09375 C 2.171875 -1.90625 2.207031 -1.734375 2.28125 -1.574219 C 2.351562 -1.414062 2.445312 -1.269531 2.566406 -1.148438 C 2.6875 -1.023438 2.828125 -0.925781 2.992188 -0.851562 C 3.15625 -0.78125 3.332031 -0.746094 3.519531 -0.746094 L 3.8125 -0.746094 C 4 -0.746094 4.175781 -0.78125 4.339844 -0.851562 C 4.503906 -0.925781 4.648438 -1.023438 4.765625 -1.148438 C 4.886719 -1.273438 4.980469 -1.414062 5.054688 -1.574219 C 5.125 -1.734375 5.160156 -1.90625 5.160156 -2.09375 C 5.160156 -2.136719 5.175781 -2.175781 5.207031 -2.207031 C 5.238281 -2.238281 5.277344 -2.253906 5.320312 -2.253906 L 5.917969 -2.253906 C 5.964844 -2.253906 6 -2.238281 6.027344 -2.207031 C 6.054688 -2.175781 6.066406 -2.136719 6.066406 -2.09375 Z "/>
</g>
</g>
<image id="source-11" x="0" y="0" width="0" height="0"/>
<mask id="mask-0">
<use xlink:href="#source-11"/>
</mask>
</defs>
<g fill="rgb(100%, 100%, 100%)" fill-opacity="1">
<use xlink:href="#glyph-0-0" x="30" y="30"/>
<use xlink:href="#glyph-0-1" x="37" y="30"/>
<use xlink:href="#glyph-0-2" x="44" y="30"/>
<use xlink:href="#glyph-0-3" x="51" y="30"/>
<use xlink:href="#glyph-0-4" x="58" y="30"/>
<use xlink:href="#glyph-0-5" x="65" y="30"/>
<use xlink:href="#glyph-0-6" x="72" y="30"/>
<use xlink:href="#glyph-0-7" x="79" y="30"/>
<use xlink:href="#glyph-0-8" x="86" y="30"/>
<use xlink:href="#glyph-0-2" x="93" y="30"/>
<use xlink:href="#glyph-0-9" x="100" y="30"/>
<use xlink:href="#glyph-0-3" x="107" y="30"/>
<use xlink:href="#glyph-0-6" x="114" y="30"/>
<use xlink:href="#glyph-0-10" x="121" y="30"/>
<use xlink:href="#glyph-0-11" x="128" y="30"/>
<use xlink:href="#glyph-0-12" x="135" y="30"/>
<use xlink:href="#glyph-0-6" x="142" y="30"/>
<use xlink:href="#glyph-0-13" x="149" y="30"/>
<use xlink:href="#glyph-0-1" x="156" y="30"/>
<use xlink:href="#glyph-0-14" x="163" y="30"/>
<use xlink:href="#glyph-0-5" x="170" y="30"/>
<use xlink:href="#glyph-0-15" x="177" y="30"/>
<use xlink:href="#glyph-0-12" x="184" y="30"/>
<use xlink:href="#glyph-0-1" x="191" y="30"/>
<use xlink:href="#glyph-0-6" x="198" y="30"/>
<use xlink:href="#glyph-0-16" x="205" y="30"/>
<use xlink:href="#glyph-0-1" x="212" y="30"/>
<use xlink:href="#glyph-0-17" x="219" y="30"/>
<use xlink:href="#glyph-0-1" x="226" y="30"/>
<use xlink:href="#glyph-0-18" x="233" y="30"/>
<use xlink:href="#glyph-0-5" x="240" y="30"/>
<use xlink:href="#glyph-0-2" x="247" y="30"/>
<use xlink:href="#glyph-0-11" x="254" y="30"/>
<use xlink:href="#glyph-0-9" x="261" y="30"/>
</g>
</svg>
