<?xml version="1.0" encoding="UTF-8"?>
<svg xmlns="http://www.w3.org/2000/svg" xmlns:xlink="http://www.w3.org/1999/xlink" width="1920" height="1080" viewBox="0 0 1920 1080">
<defs>
<g>
<g id="glyph-0-0">
<path d="M 0.214844 -0.167969 C 0.554688 -0.199219 0.777344 -0.257812 0.890625 -0.339844 C 1.066406 -0.464844 1.152344 -0.714844 1.152344 -1.09375 L 1.152344 -4.460938 C 1.152344 -4.78125 1.109375 -4.992188 1.023438 -5.089844 C 0.941406 -5.191406 0.800781 -5.242188 0.605469 -5.242188 C 0.515625 -5.242188 0.445312 -5.238281 0.398438 -5.226562 C 0.355469 -5.21875 0.300781 -5.203125 0.242188 -5.183594 L 0.242188 -5.410156 L 0.710938 -5.566406 C 0.878906 -5.621094 1.15625 -5.726562 1.542969 -5.871094 C 1.929688 -6.019531 2.132812 -6.09375 2.15625 -6.09375 C 2.175781 -6.09375 2.191406 -6.082031 2.195312 -6.0625 C 2.199219 -6.039062 2.199219 -6 2.199219 -5.9375 L 2.199219 -5.058594 C 2.628906 -5.449219 3 -5.71875 3.3125 -5.867188 C 3.625 -6.019531 3.949219 -6.09375 4.277344 -6.09375 C 4.722656 -6.09375 5.082031 -5.941406 5.34375 -5.636719 C 5.484375 -5.472656 5.597656 -5.25 5.691406 -4.96875 C 6.011719 -5.292969 6.292969 -5.535156 6.53125 -5.691406 C 6.941406 -5.960938 7.363281 -6.09375 7.792969 -6.09375 C 8.492188 -6.09375 8.957031 -5.808594 9.191406 -5.242188 C 9.328125 -4.921875 9.394531 -4.410156 9.394531 -3.71875 L 9.394531 -1.015625 C 9.394531 -0.707031 9.460938 -0.496094 9.597656 -0.386719 C 9.734375 -0.277344 9.980469 -0.203125 10.339844 -0.167969 L 10.339844 0 L 7.402344 0 L 7.402344 -0.183594 C 7.78125 -0.21875 8.027344 -0.292969 8.148438 -0.410156 C 8.265625 -0.527344 8.328125 -0.765625 8.328125 -1.125 L 8.328125 -3.933594 C 8.328125 -4.355469 8.28125 -4.664062 8.191406 -4.863281 C 8.03125 -5.21875 7.714844 -5.398438 7.246094 -5.398438 C 6.964844 -5.398438 6.683594 -5.304688 6.40625 -5.117188 C 6.246094 -5.007812 6.046875 -4.835938 5.8125 -4.597656 L 5.8125 -1.261719 C 5.8125 -0.910156 5.875 -0.644531 6 -0.460938 C 6.125 -0.28125 6.382812 -0.183594 6.785156 -0.167969 L 6.785156 0 L 3.796875 0 L 3.796875 -0.167969 C 4.207031 -0.222656 4.46875 -0.320312 4.582031 -0.46875 C 4.695312 -0.617188 4.753906 -0.980469 4.753906 -1.554688 L 4.753906 -3.378906 C 4.753906 -4.046875 4.710938 -4.507812 4.621094 -4.757812 C 4.480469 -5.183594 4.175781 -5.398438 3.710938 -5.398438 C 3.445312 -5.398438 3.1875 -5.324219 2.929688 -5.179688 C 2.671875 -5.035156 2.449219 -4.84375 2.253906 -4.609375 L 2.253906 -1.046875 C 2.253906 -0.71875 2.308594 -0.492188 2.425781 -0.363281 C 2.539062 -0.238281 2.789062 -0.171875 3.175781 -0.167969 L 3.175781 0 L 0.214844 0 Z "/>
</g>
<g id="glyph-0-1">
<path d="M 0.214844 -0.242188 C 0.757812 -0.28125 1.109375 -0.359375 1.269531 -0.484375 C 1.429688 -0.609375 1.511719 -0.929688 1.511719 -1.445312 L 1.511719 -7.375 C 1.511719 -7.867188 1.429688 -8.183594 1.269531 -8.324219 C 1.109375 -8.464844 0.757812 -8.546875 0.214844 -8.574219 L 0.214844 -8.820312 L 4.160156 -8.820312 L 4.160156 -8.574219 C 3.617188 -8.546875 3.265625 -8.464844 3.105469 -8.324219 C 2.945312 -8.183594 2.863281 -7.867188 2.863281 -7.375 L 2.863281 -1.445312 C 2.863281 -0.929688 2.945312 -0.609375 3.105469 -0.484375 C 3.265625 -0.359375 3.617188 -0.28125 4.160156 -0.242188 L 4.160156 0 L 0.214844 0 Z "/>
</g>
<g id="glyph-0-2">
<path d="M 0.339844 -3.019531 C 0.339844 -3.882812 0.613281 -4.613281 1.160156 -5.210938 C 1.710938 -5.808594 2.417969 -6.105469 3.28125 -6.105469 C 4.140625 -6.105469 4.851562 -5.824219 5.417969 -5.261719 C 5.980469 -4.695312 6.261719 -3.945312 6.261719 -3.007812 C 6.261719 -2.144531 5.988281 -1.394531 5.441406 -0.753906 C 4.894531 -0.117188 4.1875 0.203125 3.320312 0.203125 C 2.488281 0.203125 1.78125 -0.105469 1.203125 -0.714844 C 0.625 -1.328125 0.339844 -2.097656 0.339844 -3.019531 Z M 3.097656 -5.714844 C 2.753906 -5.714844 2.457031 -5.601562 2.207031 -5.378906 C 1.773438 -4.984375 1.554688 -4.300781 1.554688 -3.332031 C 1.554688 -2.558594 1.730469 -1.839844 2.078125 -1.171875 C 2.429688 -0.503906 2.914062 -0.167969 3.535156 -0.167969 C 4.019531 -0.167969 4.394531 -0.394531 4.65625 -0.839844 C 4.921875 -1.285156 5.050781 -1.871094 5.050781 -2.597656 C 5.050781 -3.347656 4.886719 -4.054688 4.550781 -4.71875 C 4.214844 -5.382812 3.734375 -5.714844 3.097656 -5.714844 Z "/>
</g>
<g id="glyph-0-3">
<path d="M 3.964844 -8.820312 L 3.964844 -8.574219 C 3.453125 -8.539062 3.121094 -8.453125 2.96875 -8.316406 C 2.816406 -8.179688 2.742188 -7.867188 2.742188 -7.375 L 2.742188 -3.113281 C 2.742188 -2.414062 2.835938 -1.867188 3.027344 -1.476562 C 3.382812 -0.765625 4.058594 -0.410156 5.050781 -0.410156 C 6.140625 -0.410156 6.871094 -0.773438 7.246094 -1.503906 C 7.453125 -1.910156 7.558594 -2.542969 7.558594 -3.390625 L 7.558594 -6.863281 C 7.558594 -7.585938 7.472656 -8.042969 7.296875 -8.226562 C 7.125 -8.410156 6.792969 -8.527344 6.308594 -8.574219 L 6.308594 -8.820312 L 9.394531 -8.820312 L 9.394531 -8.574219 C 8.878906 -8.519531 8.539062 -8.394531 8.382812 -8.199219 C 8.222656 -8.007812 8.144531 -7.5625 8.144531 -6.863281 L 8.144531 -3.390625 C 8.144531 -2.472656 8.003906 -1.753906 7.722656 -1.238281 C 7.199219 -0.285156 6.210938 0.1875 4.753906 0.1875 C 3.3125 0.1875 2.332031 -0.28125 1.808594 -1.21875 C 1.527344 -1.722656 1.386719 -2.386719 1.386719 -3.210938 L 1.386719 -7.375 C 1.386719 -7.863281 1.3125 -8.171875 1.160156 -8.308594 C 1.011719 -8.445312 0.6875 -8.535156 0.183594 -8.574219 L 0.183594 -8.820312 Z "/>
</g>
<g id="glyph-0-4">
<rect x="0" y="0" width="0" height="0" mask="url(#mask-0)"/>
</g>
<g id="glyph-0-5">
<path d="M 0.148438 -0.242188 C 0.675781 -0.296875 1 -0.394531 1.128906 -0.53125 C 1.257812 -0.667969 1.320312 -1.023438 1.320312 -1.601562 L 1.320312 -7.375 C 1.320312 -7.847656 1.25 -8.160156 1.105469 -8.304688 C 0.964844 -8.449219 0.644531 -8.539062 0.148438 -8.574219 L 0.148438 -8.820312 L 7.253906 -8.820312 L 7.296875 -6.90625 L 6.925781 -6.90625 C 6.835938 -7.519531 6.664062 -7.90625 6.414062 -8.070312 C 6.160156 -8.234375 5.664062 -8.3125 4.921875 -8.3125 L 3.097656 -8.3125 C 2.921875 -8.3125 2.808594 -8.285156 2.757812 -8.222656 C 2.707031 -8.160156 2.683594 -8.042969 2.683594 -7.863281 L 2.683594 -4.890625 L 4.609375 -4.890625 C 5.179688 -4.890625 5.539062 -4.972656 5.695312 -5.144531 C 5.851562 -5.3125 5.980469 -5.65625 6.074219 -6.171875 L 6.386719 -6.171875 L 6.386719 -3.085938 L 6.074219 -3.085938 C 5.972656 -3.601562 5.847656 -3.945312 5.691406 -4.109375 C 5.535156 -4.277344 5.171875 -4.363281 4.609375 -4.363281 L 2.683594 -4.363281 L 2.683594 -1.445312 C 2.683594 -0.953125 2.757812 -0.640625 2.90625 -0.503906 C 3.054688 -0.367188 3.382812 -0.28125 3.886719 -0.242188 L 3.886719 0 L 0.148438 0 Z "/>
</g>
<g id="glyph-0-6">
<path d="M 5.769531 -6.398438 C 5.769531 -7.214844 5.417969 -7.777344 4.714844 -8.078125 C 4.335938 -8.242188 3.859375 -8.328125 3.28125 -8.328125 C 3.007812 -8.328125 2.839844 -8.300781 2.777344 -8.246094 C 2.714844 -8.191406 2.683594 -8.070312 2.683594 -7.882812 L 2.683594 -4.40625 C 2.921875 -4.386719 3.078125 -4.371094 3.152344 -4.367188 C 3.226562 -4.363281 3.296875 -4.363281 3.367188 -4.363281 C 3.976562 -4.363281 4.460938 -4.449219 4.8125 -4.621094 C 5.449219 -4.9375 5.769531 -5.53125 5.769531 -6.398438 Z M 0.214844 -0.242188 C 0.722656 -0.289062 1.039062 -0.390625 1.164062 -0.542969 C 1.289062 -0.699219 1.355469 -1.050781 1.355469 -1.601562 L 1.355469 -7.375 C 1.355469 -7.839844 1.285156 -8.148438 1.140625 -8.292969 C 1 -8.441406 0.691406 -8.535156 0.214844 -8.574219 L 0.214844 -8.820312 L 3.730469 -8.820312 C 4.859375 -8.820312 5.722656 -8.601562 6.320312 -8.164062 C 6.921875 -7.726562 7.21875 -7.148438 7.21875 -6.433594 C 7.21875 -5.527344 6.886719 -4.867188 6.222656 -4.460938 C 5.558594 -4.050781 4.730469 -3.847656 3.730469 -3.847656 C 3.585938 -3.847656 3.402344 -3.851562 3.179688 -3.855469 C 2.957031 -3.863281 2.789062 -3.867188 2.683594 -3.867188 L 2.683594 -1.445312 C 2.683594 -0.941406 2.757812 -0.625 2.914062 -0.496094 C 3.066406 -0.363281 3.410156 -0.28125 3.945312 -0.242188 L 3.945312 0 L 0.214844 0 Z "/>
</g>
<g id="glyph-0-7">
<path d="M 1.035156 -1.132812 C 1.273438 -1.132812 1.589844 -1.007812 1.980469 -0.761719 C 2.375 -0.515625 2.707031 -0.390625 2.980469 -0.390625 C 3.589844 -0.390625 4.039062 -0.59375 4.335938 -1.003906 C 4.632812 -1.414062 4.777344 -1.863281 4.777344 -2.34375 C 4.777344 -2.808594 4.660156 -3.214844 4.421875 -3.566406 C 4.015625 -4.160156 3.335938 -4.460938 2.375 -4.460938 C 2.320312 -4.460938 2.265625 -4.457031 2.214844 -4.457031 C 2.160156 -4.453125 2.101562 -4.449219 2.03125 -4.441406 L 2.019531 -4.609375 C 2.714844 -4.859375 3.257812 -5.148438 3.660156 -5.476562 C 4.058594 -5.800781 4.257812 -6.230469 4.257812 -6.765625 C 4.257812 -7.238281 4.101562 -7.597656 3.785156 -7.84375 C 3.472656 -8.09375 3.113281 -8.214844 2.707031 -8.214844 C 2.230469 -8.214844 1.808594 -8.039062 1.445312 -7.6875 C 1.246094 -7.496094 1.03125 -7.203125 0.800781 -6.804688 L 0.597656 -6.847656 C 0.773438 -7.507812 1.097656 -8.035156 1.570312 -8.429688 C 2.042969 -8.824219 2.589844 -9.023438 3.210938 -9.023438 C 3.875 -9.023438 4.386719 -8.839844 4.75 -8.476562 C 5.113281 -8.113281 5.292969 -7.691406 5.292969 -7.214844 C 5.292969 -6.792969 5.144531 -6.40625 4.84375 -6.054688 C 4.675781 -5.855469 4.410156 -5.632812 4.054688 -5.382812 C 4.472656 -5.207031 4.808594 -4.996094 5.058594 -4.757812 C 5.53125 -4.304688 5.769531 -3.726562 5.769531 -3.027344 C 5.769531 -2.203125 5.445312 -1.476562 4.792969 -0.847656 C 4.144531 -0.21875 3.222656 0.0976562 2.023438 0.0976562 C 1.492188 0.0976562 1.117188 0.0195312 0.902344 -0.140625 C 0.6875 -0.296875 0.578125 -0.46875 0.578125 -0.652344 C 0.578125 -0.765625 0.613281 -0.871094 0.6875 -0.976562 C 0.757812 -1.082031 0.875 -1.132812 1.035156 -1.132812 Z "/>
</g>
<g id="glyph-0-8">
<path d="M 0.398438 -0.148438 C 1.984375 -1.796875 3.0625 -3.011719 3.632812 -3.78125 C 4.203125 -4.554688 4.484375 -5.308594 4.484375 -6.042969 C 4.484375 -6.683594 4.3125 -7.171875 3.964844 -7.507812 C 3.617188 -7.84375 3.203125 -8.015625 2.722656 -8.015625 C 2.128906 -8.015625 1.644531 -7.796875 1.277344 -7.363281 C 1.074219 -7.125 0.875 -6.757812 0.691406 -6.261719 L 0.410156 -6.320312 C 0.628906 -7.320312 0.996094 -8.011719 1.511719 -8.402344 C 2.03125 -8.789062 2.589844 -8.984375 3.183594 -8.984375 C 3.917969 -8.984375 4.511719 -8.753906 4.964844 -8.289062 C 5.417969 -7.828125 5.644531 -7.261719 5.644531 -6.59375 C 5.644531 -5.882812 5.398438 -5.199219 4.910156 -4.539062 C 4.417969 -3.878906 3.351562 -2.703125 1.710938 -1.015625 L 4.699219 -1.015625 C 5.117188 -1.015625 5.410156 -1.066406 5.578125 -1.164062 C 5.75 -1.265625 5.941406 -1.507812 6.152344 -1.894531 L 6.320312 -1.816406 L 5.597656 0 L 0.398438 0 Z "/>
</g>
<g id="glyph-1-0">
<path d="M 0.996094 -6.027344 C 1.625 -6.605469 2.105469 -7.105469 2.429688 -7.527344 C 2.757812 -7.949219 3.003906 -8.34375 3.164062 -8.71875 L 3.464844 -8.71875 C 3.667969 -8.289062 3.929688 -7.871094 4.253906 -7.46875 C 4.578125 -7.0625 5.050781 -6.582031 5.675781 -6.023438 L 5.675781 -5.519531 C 4.804688 -5.929688 4.132812 -6.355469 3.664062 -6.804688 L 3.664062 2.792969 L 3.007812 2.792969 L 3.007812 -6.804688 C 2.589844 -6.472656 2.28125 -6.242188 2.074219 -6.113281 C 1.867188 -5.984375 1.507812 -5.789062 0.996094 -5.535156 Z "/>
</g>
</g>
<image id="source-9" x="0" y="0" width="0" height="0"/>
<mask id="mask-0">
<use xlink:href="#source-9"/>
</mask>
</defs>
<g fill="rgb(100%, 100%, 100%)" fill-opacity="1">
<use xlink:href="#glyph-0-0" x="30" y="31.880859"/>
<use xlink:href="#glyph-0-1" x="40" y="31.880859"/>
<use xlink:href="#glyph-0-2" x="44" y="31.880859"/>
<use xlink:href="#glyph-0-3" x="51" y="31.880859"/>
<use xlink:href="#glyph-0-4" x="61" y="31.880859"/>
<use xlink:href="#glyph-0-5" x="64" y="31.880859"/>
<use xlink:href="#glyph-0-6" x="71" y="31.880859"/>
<use xlink:href="#glyph-0-7" x="78" y="31.880859"/>
<use xlink:href="#glyph-0-8" x="85" y="31.880859"/>
<use xlink:href="#glyph-0-4" x="92" y="31.880859"/>
</g>
<g fill="rgb(100%, 100%, 100%)" fill-opacity="1">
<use xlink:href="#glyph-1-0" x="95" y="31.880859"/>
</g>
</svg>
